<?xml version="1.0" encoding="utf-8"?>
<!-- Generator: Adobe Illustrator 21.0.0, SVG Export Plug-In . SVG Version: 6.00 Build 0)  -->
<svg version="1.1" id="Layer_1" xmlns="http://www.w3.org/2000/svg" xmlns:xlink="http://www.w3.org/1999/xlink" x="0px" y="0px"
	 viewBox="0 0 245 245" style="enable-background:new 0 0 245 245;" xml:space="preserve">
<style type="text/css">
	.st0{display:none;stroke:#000000;stroke-width:9;stroke-linejoin:round;stroke-miterlimit:10;}
	.st1{display:none;stroke:#000000;stroke-width:8;stroke-linejoin:round;stroke-miterlimit:10;}
	.st2{display:none;}
	.st3{display:inline;}
	.st4{display:inline;fill:#B06548;}
	.st5{display:inline;fill:none;stroke:#16211F;stroke-miterlimit:10;}
	.st6{display:none;fill:none;stroke:#000000;stroke-miterlimit:10;}
	.st7{fill:#FFFFFF;}
	.st8{fill:#FC0D46;}
	.st9{fill:#9B9B9B;}
	.st10{fill:none;}
	.st11{fill:#F5C000;}
	.st12{fill:#4F4F4F;}
	.st13{fill:#FFE180;}
	.st14{fill:#D19F00;}
</style>
<path class="st0" d="M455.6-86.3c-2.9-1-5.9-1.1-8.8-2c-2.5-0.8-5.1-1.7-7.3-3.2c-1.8-1.3-3.4-2.9-5.2-4.2c-3.4-2.5-6.9-5-10.9-6.1
	c-0.8-0.2-1.5-0.4-2.3-0.5c0,0,0-0.1-0.1-0.1c-0.1,0-0.2-0.1-0.2-0.1l-0.2,0.2c-1.2-0.2-2.5-0.3-3.7-0.2c-2.1,0.1-4,0.7-6.1,0.9
	c-0.1,0-0.1,0.2,0,0.2c0.2,0,0.4,0,0.6,0c-2.7,0.6-5.1,1.3-7.2,2.2l0,0c0,0,0.3-0.4,0.3-0.4c-0.1,0.2-0.3,0.3-0.4,0.4
	c-2.5,1.1-4.6,2.3-6.2,3.5c0,0,0,0,0,0c0.2-0.7-1.2,0.8-1.6,1.3c0,0-0.1,0.1-0.1,0.1l0,0c-0.2,0.1-0.3,0.2-0.3,0.3
	c-0.3,0.2-0.5,0.5-0.7,0.7l-0.2-0.3c-1.9,1.6-2.8,3.6-3.5,6.1c-1.7,6.6-0.9,13.6-2.7,20.2c-0.4,1.7-1.1,3.2-1.8,4.8
	c-0.6,1.3-1.3,2.7-1.5,4.1c-0.2,1.8,0.5,3.9,2.4,4.5c4.4,1.4,6.5-2.8,7.1-6.7c0.1-0.4,0.1-0.8,0.1-1.2c0,0,0,0,0,0.1
	c1.3,3.7,3.8,11.7,8.8,11.4c0.6,0.9,1.5,1.5,2.6,1.6c5.2,0.6,5-6.1,4.5-9.8c-0.3-2.4-0.7-4.8-0.6-7.2c0.1-2.2,0.7-4.3,1.3-6.4
	c0.5-1.9,1.2-3.6,1.9-5.4c0.4-1,0.9-3.3,2.1-3.8c-0.6,3-0.5,6.4-0.3,9.4c0.3,3.6,1.8,7.2,3,10.5c0.9,2.5,1.8,5.2,4,6.9
	c1.9,1.5,5.3,2,7.3,0.6c4.7-3.1,0.7-10.3-1.3-13.9c-1-1.8-1.5-3.7-2-5.7c-0.5-1.8-1.1-3.6-1.1-5.4c0-1.6,0.3-3.1,1-4.4
	c2.4-0.7,4.8-1.5,7.3-1c2.5,0.5,4.4,1.9,6.5,3.4c3,2.1,6.9,4.6,10.7,4.1c2.8-0.3,6.5-1.8,7.4-5C458.8-84.1,457.6-85.6,455.6-86.3z"
	/>
<path class="st1" d="M759.2,20.6c-4.2-1.7-6.6,2.4-7.5,6.2c-0.1,0.4-0.2,0.8-0.2,1.2c0,0,0-0.1,0-0.1c-1.1-3.8-3-12-8-11.9
	c-0.6-0.9-1.4-1.6-2.5-1.8c-5.2-1-5.4,5.8-5.2,9.4c0.1,2.4,0.4,4.9,0.1,7.3c-0.3,2.2-1,4.2-1.7,6.3c-0.6,1.8-1.5,3.5-2.3,5.3
	c-0.5,1-1.1,3.3-2.3,3.7c0.8-3,1-6.3,0.9-9.3c-0.1-3.6-1.3-7.3-2.3-10.7c-0.8-2.5-1.5-5.3-3.5-7.1c-1.8-1.6-5.1-2.3-7.3-1.1
	c-4.9,2.8-1.4,10.2,0.3,13.9c0.9,1.9,1.2,3.8,1.6,5.9c0.4,1.8,0.9,3.7,0.7,5.5c-0.1,1.5-0.5,3-1.3,4.3c-2.4,0.5-4.9,1.2-7.4,0.5
	c-2.5-0.7-4.3-2.2-6.3-3.8c-2.8-2.3-6.6-5-10.3-4.8c-2.9,0.1-6.6,1.4-7.7,4.4c-0.8,2.2,0.3,3.7,2.3,4.6c2.8,1.2,5.8,1.5,8.6,2.6
	c2.4,1,5,2.1,7,3.7c1.7,1.4,3.2,3.1,4.9,4.6c3.2,2.7,6.5,5.5,10.5,6.9c0.7,0.3,1.5,0.5,2.2,0.7c0,0,0,0.1,0,0.1
	c0.1,0.1,0.2,0.1,0.2,0.2l0.2-0.2c1.2,0.3,2.4,0.4,3.7,0.4c2.1,0.1,4.1-0.5,6.2-0.5c0.1,0,0.1-0.2,0-0.2c-0.2,0-0.4-0.1-0.6-0.1
	c2.8-0.4,5.2-1,7.3-1.7l0,0c0,0-0.3,0.4-0.3,0.4c0.1-0.2,0.3-0.3,0.4-0.4c2.6-0.9,4.8-2,6.5-3.1c0,0,0,0,0,0
	c-0.2,0.7,1.2-0.8,1.7-1.2c0,0,0.1-0.1,0.1-0.1l0,0c0.2-0.1,0.3-0.2,0.4-0.3c0.3-0.2,0.5-0.4,0.8-0.6l0.2,0.3c2-1.5,3.1-3.3,3.9-5.8
	c2.1-6.5,1.8-13.5,4-19.9c0.5-1.6,1.3-3.2,2.1-4.7c0.7-1.3,1.5-2.6,1.7-4C761.6,23.4,761,21.3,759.2,20.6z"/>
<g class="st2">
	<path class="st3" d="M761.3,25.2c0.3-1.8-0.3-3.9-2.1-4.7c-4.2-1.7-6.6,2.4-7.5,6.2l0.6,0.1c0.4-1.8,1.1-3.6,2.4-4.6
		c1-0.9,2.7-1.6,4-1.1c2.3,0.9,2.3,3.5,1.3,5.4c-2.4,4.5-4.3,8.9-5,14c-0.8,5.1-0.9,10.8-3.1,15.5c-0.6,1.3-1.5,2.3-2.5,3.1l0.3,0.5
		c2-1.5,3.1-3.3,3.9-5.8c2.1-6.5,1.8-13.5,4-19.9c0.5-1.6,1.3-3.2,2.1-4.7C760.2,28,761.1,26.7,761.3,25.2z"/>
	<path class="st4" d="M726.9,67.2c2.1,0.1,4.1-0.5,6.2-0.5c0.1,0-2.3,0-2.4,0c-2.1-0.3-1.8-0.1-3.9-0.3c-2.1-0.2-4.2-0.5-6.2-1.3
		c-3.8-1.5-7.5-4.2-10.5-7c-2.8-2.7-5.3-5.1-8.9-6.8c-2.8-1.3-5.6-2.2-8.6-2.8c-1.3-0.3-2.8-0.6-3.9-1.4c-1.8-1.3-1.4-3.4,0.1-4.8
		c3.2-3.2,7.9-3,11.7-0.9c3.3,1.8,5.9,4.8,9.2,6.4c2.5,1.3,5.6,1.2,8.3,0.6c-0.1,0.1-0.2,0.3-0.3,0.4c-1.2,1.1-2.5,1.6-3.9,2.4
		c0.2,0,0.5-0.1,0.7-0.1c0.4-0.1,0.8-0.2,1.2-0.3c1.6-0.6,3.1-1.7,4.1-3c0.1-0.2,0.3-0.3,0.4-0.5c1.3-2.6,1.1-5.1,0.4-7.9
		c-0.7-2.9-1.1-5.8-2.3-8.6c-1.2-2.6-2.3-5.4-2-8.3c0.1-1.3,0.4-2.8,1.6-3.4c1.6-0.9,3.8-0.8,5.3,0.2c2.7,1.6,3.2,4.6,4.2,7.5
		c0.3,0.9,0.6,1.9,0.9,2.9c0.1,0,0.1,0,0.2,0.1c0,0.3,0.1,0.6,0.1,0.9c0.5,1.8,0.8,3.6,0.9,5.3c0.2,1,0.3,1.9,0.4,2.9
		c0.1,1.9,0.2,4.4-0.5,6.3c0,0.3,0,0.6-0.1,0.8c0,0.5-0.2,1-0.2,1.5c0,0,0.1-0.1,0.1-0.1c0.1-0.3,0.2-0.7,0.3-1c0,0,0.1,0,0.1,0
		c1.4-0.1,2.2-2.5,2.8-3.6c1.7-3,3.1-6.3,3.8-9.7c0.7-3.3,0.4-6.7,0.4-10.1c0-2.2,0-5.5,1.8-7c2.7-2.4,4.7,1.2,5.1,3.5
		c0.4,2.2,0.5,4.3,0.6,6.5c0.2,4,0.3,7.4-1.1,11.2c-1.2,3.2-2.8,6.2-3.5,9.5c0,0.1,0,0.1,0,0.2c0.8-2.3,2.1-4.5,3-6.7
		c0.8-1.8,1.6-3.6,2-5.5c0.4-1.8,0.5-3.8,0.6-5.7c0,0,0,0,0-0.1c0-1.1-0.1-2.3-0.2-3.4c-0.1-2.1,0-6-1.1-8.6c2.8,0.4,4.3,4.7,5,6.9
		c0.9,2.6,1.8,5.3,2.3,8.1c0.5,2.8,0.1,5.7-0.4,8.5c-0.4,2.2-1,4.2-0.9,6.5c0,0.1,0.2,0.1,0.2,0c0-1.8,0.6-3.4,1-5.1
		c0.5-1.7,0.7-3.4,1.1-5.2c0.4-2.4,0.2-4.8-0.4-7.2c0,0,0.1-0.1,0.1-0.2c0.1-0.7,0.2-1.5,0.4-2.3c0.4-1.8,1.1-3.6,2.4-4.6
		c1-0.9,2.7-1.6,4-1.1c2.3,0.9,2.3,3.5,1.3,5.4c-2.4,4.5-4.3,8.9-5,14c-0.8,5.1-0.9,10.8-3.1,15.5c-0.6,1.3-1.5,2.3-2.5,3.1
		c-0.6,0.5-0.3,0.8-1,1.2c-0.1,0-2.1,2.1-1.9,1.3c-2.5,1.4-5.1,1.4-6.9,3.5c0,0,0.2-0.3,0.3-0.4 M735.7,52.2c-0.2,0-0.2,0.3,0,0.3
		c1.5,0.2,2.9-0.3,4.3-0.9c0.3-0.1,0-0.5-0.3-0.4C738.4,51.8,737.2,52.4,735.7,52.2z M725.3,54.2c-0.6-0.1-1.3-0.3-1.8,0.1
		c-0.1,0.1,0,0.3,0.1,0.3c0.8-0.3,1.7,0.5,2.5,0.4c0.9-0.1,1.7-0.4,2.5-1c0.3-0.2,0-0.7-0.3-0.6C727.3,53.8,726.5,54.4,725.3,54.2z"
		/>
	<path class="st3" d="M752.3,26.9l-0.6-0.1c-0.1,0.4-0.2,0.8-0.2,1.2c0,0,0-0.1,0-0.1c-1.1-3.8-3-12-8-11.9
		c-0.6-0.9-1.4-1.6-2.5-1.8c-5.2-1-5.4,5.8-5.2,9.4c0.1,2.4,0.4,4.9,0.1,7.3c-0.3,2.2-1,4.2-1.7,6.3c-0.6,1.8-1.5,3.5-2.3,5.3
		c-0.5,1-1.1,3.3-2.3,3.7l0,0.2c1.4-0.1,2.2-2.5,2.8-3.6c1.7-3,3.1-6.3,3.8-9.7c0.7-3.3,0.4-6.7,0.4-10.1c0-2.2,0-5.5,1.8-7
		c2.7-2.4,4.7,1.2,5.1,3.5c0.4,2.2,0.5,4.3,0.6,6.5c0.2,4,0.3,7.4-1.1,11.2c-1.2,3.2-2.8,6.2-3.5,9.5c0,0.1,0,0.1,0,0.2
		c0.8-2.3,2.1-4.5,3-6.7c0.8-1.8,1.6-3.6,2-5.5c0.4-1.8,0.5-3.8,0.6-5.7c0,0,0,0,0-0.1c0-1.1-0.1-2.3-0.2-3.4c-0.1-2.1,0-6-1.1-8.6
		c2.8,0.4,4.3,4.7,5,6.9c0.9,2.6,1.8,5.3,2.3,8.1c0.5,2.8,0.1,5.7-0.4,8.5c-0.4,2.2-1,4.2-0.9,6.5c0,0.1,0.2,0.1,0.2,0
		c0-1.8,0.6-3.4,1-5.1c0.5-1.7,0.7-3.4,1.1-5.2c0.4-2.4,0.2-4.8-0.4-7.2c0,0,0.1-0.1,0.1-0.2C752,28.5,752.1,27.7,752.3,26.9z"/>
	<path class="st3" d="M740,51.6c0.3-0.1,0-0.5-0.3-0.4c-1.3,0.6-2.5,1.2-4,1c-0.2,0-0.2,0.3,0,0.3C737.2,52.8,738.6,52.3,740,51.6z"
		/>
	<path class="st3" d="M730.5,36.7c-0.1-3.6-1.3-7.3-2.3-10.7c-0.8-2.5-1.5-5.3-3.5-7.1c-1.8-1.6-5.1-2.3-7.3-1.1
		c-4.9,2.8-1.4,10.2,0.3,13.9c0.9,1.9,1.2,3.8,1.6,5.9c0.4,1.8,0.9,3.7,0.7,5.5c-0.1,1.5-0.5,3-1.3,4.3c-2.4,0.5-4.9,1.2-7.4,0.5
		c-2.5-0.7-4.3-2.2-6.3-3.8c-2.8-2.3-6.6-5-10.3-4.8c-2.9,0.1-6.6,1.4-7.7,4.4c-0.8,2.2,0.3,3.7,2.3,4.6c2.8,1.2,5.8,1.5,8.6,2.6
		c2.4,1,5,2.1,7,3.7c1.7,1.4,3.2,3.1,4.9,4.6c3.2,2.7,6.5,5.5,10.5,6.9c0.7,0.3,1.5,0.5,2.2,0.7c0,0,0,0.1,0,0.1
		c0.1,0.1,0.2,0.1,0.2,0.2l0.2-0.2c1.2,0.3,2.4,0.4,3.7,0.4c2.1,0.1,4.1-0.5,6.2-0.5c0.1,0,0.1-0.2,0-0.2c-2.1-0.3-4.1,0-6.2-0.1
		c-2.1-0.2-4.2-0.5-6.2-1.3c-3.8-1.5-7.5-4.2-10.5-7c-2.8-2.7-5.3-5.1-8.9-6.8c-2.8-1.3-5.6-2.2-8.6-2.8c-1.3-0.3-2.8-0.6-3.9-1.4
		c-1.8-1.3-1.4-3.4,0.1-4.8c3.2-3.2,7.9-3,11.7-0.9c3.3,1.8,5.9,4.8,9.2,6.4c2.5,1.3,5.6,1.2,8.3,0.6c-0.1,0.1-0.2,0.3-0.3,0.4
		c-1.2,1.1-2.5,1.6-3.9,2.4c0.2,0,0.5-0.1,0.7-0.1c0.4-0.1,0.8-0.2,1.2-0.3c1.6-0.6,3.1-1.7,4.1-3c0.1-0.2,0.3-0.3,0.4-0.5
		c1.3-2.6,1.1-5.1,0.4-7.9c-0.7-2.9-1.1-5.8-2.3-8.6c-1.2-2.6-2.3-5.4-2-8.3c0.1-1.3,0.4-2.8,1.6-3.4c1.6-0.9,3.8-0.8,5.3,0.2
		c2.7,1.6,3.2,4.6,4.2,7.5c0.3,0.9,0.6,1.9,0.9,2.9c0.1,0,0.1,0,0.2,0.1c0,0.3,0.1,0.6,0.1,0.9c0.5,1.8,0.8,3.6,0.9,5.3
		c0.2,1,0.3,1.9,0.4,2.9c0.1,1.9,0.2,4.4-0.5,6.3c0,0.3,0,0.6-0.1,0.8c0,0.5-0.2,1-0.2,1.5c0,0,0.1-0.1,0.1-0.1
		c0.1-0.3,0.2-0.7,0.3-1c0,0,0.1,0,0.1,0l0-0.2C730.4,43.1,730.5,39.7,730.5,36.7z"/>
	<path class="st3" d="M728.7,54c0.3-0.2,0-0.7-0.3-0.6c-1.1,0.4-1.8,1-3.1,0.8c-0.6-0.1-1.3-0.3-1.8,0.1c-0.1,0.1,0,0.3,0.1,0.3
		c0.8-0.3,1.7,0.5,2.5,0.4C727.1,54.9,727.9,54.5,728.7,54z"/>
	<path class="st5" d="M751.7,57.1c0,0-7.1,9.6-24.9,9.8"/>
</g>
<g class="st2">
	<path class="st3" d="M385.5-58.5c-0.2,1.8,0.5,3.9,2.4,4.5c4.4,1.4,6.5-2.8,7.1-6.7l-0.6-0.1c-0.3,1.8-0.9,3.6-2,4.8
		c-0.9,0.9-2.6,1.8-3.9,1.3c-2.3-0.8-2.5-3.3-1.6-5.3c2.1-4.6,3.7-9.2,4.1-14.3c0.4-5.2,0.1-10.8,2-15.7c0.5-1.3,1.3-2.4,2.3-3.2
		l-0.4-0.5c-1.9,1.6-2.8,3.6-3.5,6.1c-1.7,6.6-0.9,13.6-2.7,20.2c-0.4,1.7-1.1,3.2-1.8,4.8C386.4-61.4,385.6-60,385.5-58.5z"/>
	<path class="st4" d="M416.9-102.8c-2.1,0.1-4,0.7-6.1,0.9c-0.1,0,2.3-0.1,2.4-0.1c2.1,0.2,1.8,0,3.9,0c2.1,0,4.3,0.2,6.3,0.9
		c3.9,1.3,7.8,3.6,11,6.3c3,2.5,5.7,4.7,9.3,6.2c2.9,1.2,5.8,1.8,8.8,2.2c1.3,0.2,2.8,0.4,4,1.1c1.9,1.2,1.6,3.3,0.3,4.8
		c-3,3.4-7.6,3.5-11.6,1.7c-3.4-1.6-6.2-4.4-9.6-5.8c-2.6-1.1-5.7-0.8-8.4-0.1c0.1-0.1,0.2-0.3,0.3-0.4c1.1-1.2,2.4-1.8,3.7-2.7
		c-0.2,0-0.4,0.1-0.7,0.2c-0.4,0.2-0.8,0.3-1.1,0.4c-1.6,0.7-3,1.9-3.9,3.3c-0.1,0.2-0.2,0.4-0.3,0.5c-1.1,2.6-0.7,5.2,0.1,7.9
		c0.9,2.9,1.5,5.8,2.9,8.4c1.3,2.5,2.6,5.2,2.6,8.1c0,1.3-0.2,2.8-1.3,3.5c-1.5,1-3.7,1-5.3,0.2c-2.8-1.4-3.5-4.4-4.7-7.2
		c-0.4-0.9-0.8-1.8-1.1-2.8c-0.1,0-0.1,0-0.2-0.1c-0.1-0.3-0.1-0.6-0.2-0.8c-0.6-1.7-1.1-3.5-1.3-5.2c-0.3-0.9-0.5-1.9-0.6-2.9
		c-0.2-1.9-0.5-4.4,0.1-6.4c0-0.3,0-0.6,0-0.8c0-0.5,0.1-1,0.1-1.5c0,0-0.1,0.1-0.1,0.2c-0.1,0.3-0.2,0.7-0.3,1.1c0,0-0.1,0-0.1,0
		c-1.4,0.2-2,2.7-2.5,3.8c-1.4,3.1-2.6,6.5-3.2,10c-0.5,3.3,0.1,6.7,0.3,10.1c0.1,2.2,0.4,5.5-1.3,7.1c-2.5,2.5-4.7-0.8-5.4-3.2
		c-0.6-2.1-0.8-4.3-1.1-6.5c-0.5-3.9-0.8-7.4,0.3-11.2c1-3.2,2.4-6.4,2.9-9.7c0-0.1,0-0.1,0-0.2c-0.6,2.4-1.8,4.6-2.6,6.9
		c-0.7,1.9-1.3,3.7-1.6,5.7c-0.3,1.9-0.2,3.8-0.2,5.7c0,0,0,0,0,0.1c0.1,1.1,0.3,2.2,0.4,3.4c0.2,2.1,0.4,5.9,1.7,8.5
		c-2.8-0.3-4.6-4.4-5.5-6.6c-1.1-2.6-2.2-5.2-2.8-7.9c-0.6-2.8-0.5-5.7-0.1-8.5c0.3-2.2,0.8-4.3,0.4-6.5c0-0.1-0.2-0.1-0.2,0
		c0.1,1.8-0.3,3.4-0.7,5.1c-0.4,1.7-0.5,3.5-0.7,5.2c-0.3,2.4,0.1,4.8,0.9,7.1c0,0-0.1,0.1-0.1,0.2c0,0.7-0.1,1.5-0.2,2.3
		c-0.3,1.8-0.9,3.6-2,4.8c-0.9,0.9-2.6,1.8-3.9,1.3c-2.3-0.8-2.5-3.3-1.6-5.3c2.1-4.6,3.7-9.2,4.1-14.3c0.4-5.2,0.1-10.8,2-15.7
		c0.5-1.3,1.3-2.4,2.3-3.2c0.6-0.5,0.2-0.8,0.9-1.2c0.1,0,2-2.2,1.8-1.4c2.4-1.5,5-1.7,6.6-4c0-0.1-0.2,0.3-0.3,0.4 M409.2-87.2
		c0.2,0,0.1-0.3-0.1-0.3c-1.5-0.1-2.9,0.5-4.2,1.2c-0.3,0.1,0.1,0.5,0.3,0.4C406.5-86.6,407.7-87.3,409.2-87.2z M419.4-89.9
		c0.6,0.1,1.3,0.2,1.8-0.2c0.1-0.1,0-0.3-0.1-0.3c-0.8,0.4-1.8-0.3-2.6-0.2c-0.9,0.1-1.7,0.6-2.4,1.1c-0.3,0.2,0,0.7,0.3,0.5
		C417.5-89.4,418.2-90,419.4-89.9z"/>
	<path class="st3" d="M394.4-60.8l0.6,0.1c0.1-0.4,0.1-0.8,0.1-1.2c0,0,0,0,0,0.1c1.3,3.7,3.8,11.7,8.8,11.4
		c0.6,0.9,1.5,1.5,2.6,1.6c5.2,0.6,5-6.1,4.5-9.8c-0.3-2.4-0.7-4.8-0.6-7.2c0.1-2.2,0.7-4.3,1.3-6.4c0.5-1.9,1.2-3.6,1.9-5.4
		c0.4-1,0.9-3.3,2.1-3.8l0-0.2c-1.4,0.2-2,2.7-2.5,3.8c-1.4,3.1-2.6,6.5-3.2,10c-0.5,3.3,0.1,6.7,0.3,10.1c0.1,2.2,0.4,5.5-1.3,7.1
		c-2.5,2.5-4.7-0.8-5.4-3.2c-0.6-2.1-0.8-4.3-1.1-6.5c-0.5-3.9-0.8-7.4,0.3-11.2c1-3.2,2.4-6.4,2.9-9.7c0-0.1,0-0.1,0-0.2
		c-0.6,2.4-1.8,4.6-2.6,6.9c-0.7,1.9-1.3,3.7-1.6,5.7c-0.3,1.9-0.2,3.8-0.2,5.7c0,0,0,0,0,0.1c0.1,1.1,0.3,2.2,0.4,3.4
		c0.2,2.1,0.4,5.9,1.7,8.5c-2.8-0.3-4.6-4.4-5.5-6.6c-1.1-2.6-2.2-5.2-2.8-7.9c-0.6-2.8-0.5-5.7-0.1-8.5c0.3-2.2,0.8-4.3,0.4-6.5
		c0-0.1-0.2-0.1-0.2,0c0.1,1.8-0.3,3.4-0.7,5.1c-0.4,1.7-0.5,3.5-0.7,5.2c-0.3,2.5,0.1,4.8,0.9,7.1c0,0-0.1,0.1-0.1,0.2
		C394.6-62.4,394.5-61.6,394.4-60.8z"/>
	<path class="st3" d="M405-86.3c-0.3,0.1,0.1,0.5,0.3,0.4c1.3-0.7,2.4-1.3,3.9-1.3c0.2,0,0.1-0.3-0.1-0.3
		C407.6-87.7,406.3-87.1,405-86.3z"/>
	<path class="st3" d="M415.4-72.1c0.3,3.6,1.8,7.2,3,10.5c0.9,2.5,1.8,5.2,4,6.9c1.9,1.5,5.3,2,7.3,0.6c4.7-3.1,0.7-10.3-1.3-13.9
		c-1-1.8-1.5-3.7-2-5.7c-0.5-1.8-1.1-3.6-1.1-5.4c0-1.6,0.3-3.1,1-4.4c2.4-0.7,4.8-1.5,7.3-1c2.5,0.5,4.4,1.9,6.5,3.4
		c3,2.1,6.9,4.6,10.7,4.1c2.8-0.3,6.5-1.8,7.4-5c0.6-2.2-0.6-3.7-2.6-4.4c-2.9-1-5.9-1.1-8.8-2c-2.5-0.8-5.1-1.7-7.3-3.2
		c-1.8-1.3-3.4-2.9-5.2-4.2c-3.4-2.5-6.9-5-10.9-6.1c-0.8-0.2-1.5-0.4-2.3-0.5c0,0,0-0.1-0.1-0.1c-0.1,0-0.2-0.1-0.2-0.1l-0.2,0.2
		c-1.2-0.2-2.5-0.3-3.7-0.2c-2.1,0.1-4,0.7-6.1,0.9c-0.1,0-0.1,0.2,0,0.2c2.1,0.2,4.1-0.3,6.2-0.3c2.1,0,4.3,0.2,6.3,0.9
		c3.9,1.3,7.8,3.6,11,6.3c3,2.5,5.7,4.7,9.3,6.2c2.9,1.2,5.8,1.8,8.8,2.2c1.3,0.2,2.8,0.4,4,1.1c1.9,1.2,1.6,3.3,0.3,4.8
		c-3,3.4-7.6,3.5-11.6,1.7c-3.4-1.6-6.2-4.4-9.6-5.8c-2.6-1.1-5.7-0.8-8.4-0.1c0.1-0.1,0.2-0.3,0.3-0.4c1.1-1.2,2.4-1.8,3.7-2.7
		c-0.2,0-0.4,0.1-0.7,0.2c-0.4,0.2-0.8,0.3-1.1,0.4c-1.6,0.7-3,1.9-3.9,3.3c-0.1,0.2-0.2,0.4-0.3,0.5c-1.1,2.6-0.7,5.2,0.1,7.9
		c0.9,2.9,1.5,5.8,2.9,8.4c1.3,2.5,2.6,5.2,2.6,8.1c0,1.3-0.2,2.8-1.3,3.5c-1.5,1-3.7,1-5.3,0.2c-2.8-1.4-3.5-4.4-4.7-7.2
		c-0.4-0.9-0.8-1.8-1.1-2.8c-0.1,0-0.1,0-0.2-0.1c-0.1-0.3-0.1-0.6-0.2-0.8c-0.6-1.7-1.1-3.5-1.3-5.2c-0.3-0.9-0.5-1.9-0.6-2.9
		c-0.2-1.9-0.5-4.4,0.1-6.4c0-0.3,0-0.6,0-0.8c0-0.5,0.1-1,0.1-1.5c0,0-0.1,0.1-0.1,0.2c-0.1,0.3-0.2,0.7-0.3,1.1c0,0-0.1,0-0.1,0
		l0,0.2C415.1-78.4,415.2-75,415.4-72.1z"/>
	<path class="st3" d="M416.1-89.4c-0.3,0.2,0,0.7,0.3,0.5c1.1-0.5,1.8-1.1,3-1c0.6,0.1,1.3,0.2,1.8-0.2c0.1-0.1,0-0.3-0.1-0.3
		c-0.8,0.4-1.8-0.3-2.6-0.2C417.6-90.4,416.8-90,416.1-89.4z"/>
	<path class="st5" d="M392.9-91c0,0,6.4-10.1,24.2-11.5"/>
</g>
<rect x="172.6" y="-153.8" class="st6" width="593.4" height="222.5"/>
<g>
	<path d="M123,240.5c-24.2,0-48-8.3-67-23.5c-19.3-15.4-32.8-37.1-38.1-61.2c-6.2-28.1-1-56.9,14.5-81.2s39.5-41,67.7-47.1
		c7.6-1.7,15.4-2.5,23.1-2.5c24.2,0,48,8.3,67,23.5c19.3,15.3,32.8,37.1,38.1,61.2c6.2,28.1,1,56.9-14.5,81.2s-39.5,41-67.6,47.1
		C138.5,239.7,130.7,240.5,123,240.5z M123.1,38.1c-6.8,0-13.6,0.8-20.4,2.2c-24.7,5.4-45.8,20.1-59.5,41.4
		c-13.6,21.3-18.2,46.6-12.8,71.4c9.4,43.1,48.3,74.5,92.4,74.5c6.8,0,13.6-0.8,20.4-2.2c24.7-5.4,45.8-20.1,59.5-41.4
		c13.6-21.3,18.2-46.6,12.8-71.4C206.1,69.4,167.2,38.1,123.1,38.1z"/>
	<path d="M224.4,110.6c-12.2-55.9-67.6-91.3-123.5-79.1c-14.6,3.2-27.4,10.1-38.7,19.8c-2.9,2.5-5.7,5.3-9.1,7.2
		c-2.1,1.2-4.4,2.1-6.3,3.7c-2.9,2.3-5.1,6.2-7.3,9.2c-2.5,3.4-4.8,7-6.9,10.7c-4.1,7.3-7.3,15.2-9.5,23.3
		c-4.4,16.1-4.9,33.3-1.3,49.6c5.9,27.1,22,50.2,45.4,65.1c16.9,10.8,36.1,16.4,55.7,16.4c7.4,0,14.9-0.8,22.4-2.4
		c27.1-5.9,50.2-22,65.1-45.4C225.3,165.4,230.3,137.7,224.4,110.6z"/>
	<path d="M106.4,58.7c-0.9-0.7-1.9-1.3-2.9-1.9c-0.5-0.3-1-0.6-1.5-0.9c-0.5-0.3-1-0.6-1.8-0.9c-0.1,0-0.2-0.1-0.4-0.1
		c-0.2,0-0.4-0.1-0.6-0.1l-0.6,0c-0.2,0-0.5,0-0.8,0.1c-0.3,0-0.4,0.1-0.6,0.1c-0.8,0.2-1.4,0.5-2,0.8c-0.3,0.2-0.6,0.3-0.8,0.5
		c-1.1-0.6-3-1.6-5.4-2.8c-0.3-1.9-0.6-3.8-1-5.6c-0.5-2.6-1-5.2-1.7-7.8c-0.1-0.4-0.2-0.8-0.3-1.3c12.4,6.3,20.7,11,25.2,13.8
		C109.7,53.7,108.1,55.7,106.4,58.7z"/>
	<path class="st7" d="M98.7,59.6L98.7,59.6C98.6,59.6,98.7,59.6,98.7,59.6L98.7,59.6z"/>
	<path d="M90.3,59.5c-0.1,0.1-0.1,0.1-0.2,0.2c-0.1-0.5-0.2-1-0.2-1.5c0.4,0.2,0.8,0.4,1.1,0.6C90.7,59.1,90.5,59.3,90.3,59.5z"/>
	<path class="st7" d="M189.9,187.8C189.9,187.8,189.9,187.8,189.9,187.8L189.9,187.8z"/>
	<g>
		<path class="st8" d="M101.9,36.4c20-4.4,39.9-2.3,57.6,4.7c-5.3,0.8-10.8,2.8-13.3,4.2c-4.7,2.6-12.2,8.2-15.3,10.6
			c-5.7-3.6-9.4-5.3-11.8-5.9c-1-0.3-2.3-0.4-3.9,0.1c-3.4-2.1-10.2-6.2-20.7-11.7C97,37.6,99.4,36.9,101.9,36.4z"/>
		<path class="st8" d="M62,53c2.3,1.7,2.4,7,4.5,8.7C66.4,62,54.7,74,54.6,74.3l-0.1,1.1l-0.1,1.1l-0.1,1.1c-0.2,2.8,0,5.6,0.3,8.3
			c0.3,2.7,0.8,5.3,1.4,7.9c0.5,2.4,1.1,4.8,1.9,7.2c-0.6,1.9-1.1,3.7-1.6,5.6c-0.6,2.1-1.1,4.1-1.6,6.2c-0.5,2.1-1,4.1-1.4,6.2
			c-0.4,2.1-0.9,4.2-1.3,6.3c-0.4,2.1-0.8,4.2-1.1,6.3c-0.3,2.1-0.7,4.2-1,6.3l-0.9,6.3l-0.7,6.3c-0.3,2.1-0.4,4.2-0.6,6.4
			c-0.2,2.1-0.4,4.2-0.5,6.4l-0.4,6.4c-0.1,2.1-0.2,4.3-0.2,6.4c-0.1,2.1-0.1,4.3-0.1,6.4c0,2.1,0.1,4.3,0.2,6.4
			c0,2.1,0.3,4.2,0.6,6.4c0.1,0.4,0.1,0.8,0.2,1.2c-10.2-12.1-17.3-26.5-20.8-42.4C8.2,114.3,47.4,66.7,62,53z"/>
		<path class="st8" d="M206.2,186c-12.8,19.9-31.9,34.3-54.3,41.2c-10.7-13.5-13-27.4-13.3-34.8c0.3,0.2,0.5,0.4,0.8,0.5
			c4.6,2.8,9.8,4.9,15.1,6.1c5.3,1.2,10.7,1.4,15.8,0.7c2.5-0.3,5-0.8,7.4-1.4c2.4-0.6,4.6-1.3,6.8-2.1c2.2-0.8,4.3-1.6,6.4-2.8
			c1-0.6,2.1-1.3,3.1-2.6c0.5-0.7,1-1.6,1-2.7c0-1.1-0.3-2-0.6-2.6c-0.7-1.3-1.5-2.1-2.2-2.8c-0.7-0.7-1.4-1.3-2-1.9
			c-1.3-1.2-2.4-2.3-3.3-3.4c-0.2-0.3-0.4-0.5-0.6-0.8l-0.3-0.4l-0.1-0.2l-0.1-0.1l0-0.1l0,0c0,0,0,0,0,0l-0.3-0.4L185,175l-0.1-0.2
			l-0.2-0.3l-0.2-0.4c-0.4-1.1-0.7-2.1-0.9-3.2c-0.2-1-0.3-2-0.5-2.8c4.6,1.4,8.7,2.4,11,2.4c0,0,0,0,0,0c6.1,0,19.1-6.5,19.3-6.6
			c3.2-1.6,5.2-11.6,5.2-12.6c0-1,0-1.5-8.6-12.6c-5.4-6.9-12.3-15.6-19-23.8c-8.7-10.6-23.2-27.9-33.4-38.1
			c3.1-4.9,11.7-19.1,13.9-27.4c0.2-0.9,0.3-1.7,0.3-2.4c23.4,13.4,41.3,36.2,47.6,64.6C225.1,137.4,220.4,163.8,206.2,186z"/>
	</g>
	<path class="st9" d="M83.8,40.2c0,0,19,10.8,26.4,16.3l4.5-5.5L82.9,34.1"/>
	<path d="M116.9,68.4c0,0-0.6-0.1-1.6-0.4c-1-0.3-2.3-0.8-3.8-1.5c-1.5-0.7-3.1-1.7-4.9-2.7s-3.6-2.1-5.5-3.1
		c-0.5-0.2-0.9-0.5-1.4-0.7c-0.4-0.2-0.9-0.4-1.1-0.5c0,0-0.1,0,0,0c0.1,0,0.1,0,0.2,0l0.2,0h0h0H99h-0.1h-0.2c-0.1,0,0,0,0,0
		c0,0-0.1,0-0.1,0c-0.2,0.1-0.5,0.2-0.8,0.4c-0.6,0.4-1.3,0.9-1.9,1.4c-0.6,0.5-1.2,1.1-1.7,1.7c-1.1,1.1-1.9,2.1-2.5,2.8
		c-0.6,0.7-1,1.1-1,1.1l-3.9-3.1c0,0,0.3-0.4,0.9-1.2c0.6-0.8,1.5-1.9,2.7-3.1c0.6-0.6,1.3-1.3,2.1-2c0.8-0.7,1.7-1.4,2.9-2
		c0.6-0.3,1.3-0.6,2-0.8c0.2,0,0.4-0.1,0.6-0.1c0.3,0,0.6-0.1,0.8-0.1l0.6,0c0.2,0,0.4,0.1,0.6,0.1c0.2,0.1,0.3,0.1,0.4,0.1
		c0.8,0.3,1.3,0.6,1.8,0.9c0.5,0.3,1,0.6,1.5,0.9c1.9,1.2,3.7,2.5,5.3,3.8c1.6,1.3,3.2,2.4,4.4,3.5c1.2,1.1,2.1,2.2,2.7,3
		C116.6,67.8,116.9,68.4,116.9,68.4z"/>
	<g>
		<path class="st10" d="M81.6,93.9"/>
	</g>
	<g>
		<path d="M162.4,104c-1.8,2.4-3.5,4.7-5.1,7.2c-3,4.4-5.9,8.8-8.6,13.4C117.6,89.7,64.6,53.5,36.3,35.3
			C93.4,59,138.3,87.4,162.4,104z"/>
		<path class="st9" d="M159.4,109.1c0,0-63.6-47.2-139-81.3c0,0,110.9,50.5,144.4,75L159.4,109.1z"/>
		<path d="M147.7,129.5C105.2,80.5,16.1,27.5,15.2,27c-0.9-0.5-1.3-1.7-0.8-2.6c0.5-1,1.6-1.4,2.6-1c69.3,25.8,123.7,60.5,150,78.9
			l-2.3,3.3C141.2,89.2,95.2,59.8,36.3,35.3c28.9,18.5,83.7,56,114.5,91.5L147.7,129.5z"/>
	</g>
	<path d="M93.9,60.4c0,0-2.9-1.6-8.1-4.3l1.9-3.6c5.3,2.7,8.2,4.3,8.3,4.4L93.9,60.4z"/>
	<g>
		<path d="M26.3,9.7c38.6,16.2,67.4,30.6,87.7,41.9c-0.2,0.2-0.3,0.4-0.5,0.6c-1.8,2.2-3.3,4.4-4.8,6.7c-0.5,0.9-1.1,1.7-1.6,2.6
			c-1.3-0.7-2.6-1.4-4.1-2.2C70.4,36.6,44.2,20.3,26.3,9.7z"/>
		<g>
			<path class="st9" d="M136.2,70.6c0,0-84.9-51.6-114.2-64C22,6.5,123,53.1,140.8,67L136.2,70.6z"/>
			<path d="M167.4,87.2c-3.4-2.5-8-5.7-13.8-9.6c-3-2-6.3-4.1-9.9-6.4c0,0,0,0,0,0c-1.5-0.9-3-1.9-4.6-2.8
				c-6.6-4.1-14.2-8.6-22.8-13.4c0,0,0,0,0,0c-0.8-0.5-1.6-0.9-2.4-1.3c-0.3-0.2-0.6-0.4-1-0.5c-0.5-0.3-1-0.5-1.5-0.8
				c-7.6-4.2-16-8.7-25.2-13.4c-2.1-1.1-4.2-2.2-6.4-3.3c0,0,0,0,0,0c-0.2-0.1-0.4-0.2-0.6-0.3c-0.1,0-0.1-0.1-0.2-0.1h0
				c-0.2-0.1-0.4-0.2-0.6-0.3c-1.4-0.7-2.7-1.4-4.1-2.1c-4.8-2.3-9.7-4.8-14.9-7.2c0,0,0,0-0.1,0c-2.9-1.4-6-2.8-9-4.2
				c6.3,4.1,13.6,8.9,21.9,14.5c0.7,0.5,1.4,1,2.1,1.5c0.7,0.5,1.4,1,2.2,1.5c0,0,0,0,0,0c0.3,0.2,0.5,0.4,0.8,0.6
				c1.5,1,3,2.1,4.5,3.2c0,0,0,0,0,0c2,1.4,4.1,2.9,6.2,4.3c5.6,4,11.6,8.2,17.9,12.8c0.6,0.4,1.1,0.8,1.7,1.2
				c0.2,0.1,0.3,0.2,0.5,0.3c0.5,0.4,1,0.7,1.5,1.1c0.2,0.1,0.3,0.2,0.4,0.3c2.1,1.5,4.3,3.1,6.4,4.7c2.8,2,5.6,4.2,8.5,6.3
				c0.1,0.1,0.2,0.1,0.3,0.2l-2.5,3.3c-3.1-2.3-6.1-4.6-9.1-6.8c-5.1-3.8-10-7.4-14.7-10.8c-3.4-2.4-6.6-4.8-9.8-7
				c-2-1.4-4-2.8-5.9-4.2l0,0c-1.7-1.2-3.4-2.3-5-3.5c-0.5-0.3-1-0.7-1.5-1c-0.4-0.3-0.8-0.5-1.1-0.8c-0.4-0.3-0.8-0.5-1.2-0.8
				c0,0,0,0,0,0c-0.7-0.4-1.3-0.9-1.9-1.3c-0.8-0.5-1.6-1.1-2.3-1.6C38.8,18.2,21.3,8.4,21,8.3c-1-0.5-1.3-1.7-0.8-2.7
				c0.5-1,1.6-1.4,2.6-1C43.1,13.5,61.1,21.9,77,29.8c2.6,1.3,5.1,2.5,7.5,3.8c11.5,5.8,21.7,11.3,30.9,16.4
				c3.3,1.8,6.4,3.6,9.3,5.3c1.6,0.9,3.2,1.9,4.8,2.8c0.4,0.3,0.8,0.5,1.3,0.8c0.9,0.5,1.7,1,2.6,1.5c1.6,1,3.2,1.9,4.7,2.8
				c4,2.4,7.7,4.7,11,6.8c1.3,0.8,2.5,1.6,3.6,2.3c0,0,0,0,0,0c0,0,0.1,0,0.1,0.1c0.5,0.3,0.9,0.6,1.3,0.9c1.5,1,2.8,1.9,4.2,2.8
				c-0.2,0.4-0.4,0.7-0.6,1C160.7,79.9,164,83.4,167.4,87.2z"/>
		</g>
	</g>
	<path d="M154.4,173.1c0,0,5.4-1.1,11.7,6.6c0,0-2.2-6-3.1-7.7c0,0,9-0.1,16.5,14.8l2-0.4l-6.1-11.2l0-12.8l-15-5.6l-9.1-3.6"/>
	<path d="M153,228.6l-3.4,2.8c-8.4-10-12.3-20.2-14.1-28.4c-0.7-3.1-1.1-5.8-1.3-8.2c1.4,1,2.8,2,4.2,3c0.2,0.2,0.4,0.3,0.6,0.5
		c0.4,2.8,1.1,5.9,2.2,9.3C143.4,214.1,147,221.4,153,228.6z"/>
	<path d="M150.2,228.7l-10.1,3.9c-5.4-8.8-9.2-24.2-11.3-34.4c-0.7-3.4-1.2-6.1-1.5-7.9c0.8,0.5,1.6,1,2.3,1.5
		c0.6,0.4,1.3,0.8,1.9,1.3c0.8,0.5,1.6,1.1,2.4,1.6c1.5,1,2.9,2.1,4.4,3.1l1.1,8.3l0.6,5L150.2,228.7z"/>
	<polygon class="st11" points="129.9,192.5 142.6,180.6 98.5,153 67.9,147.4 76.3,168.6 	"/>
	<g>
		<path class="st11" d="M151.6,71.2c-0.7-0.6-1.4-1.1-2.1-1.7c2.8-3.1,8-9.2,8.4-10.6c0.6-1.9-9.7,0.5-9.7,0.5s13-5.8,13.6-9.3
			c0.6-3.4-8.8-0.3-12.3,2c-2.6,1.7-7.7,6.9-10.2,9.6c-1.4-1.1-2.8-2-4.1-2.9c3.5-2.6,9.5-7,13.3-9.1c4.8-2.6,15.4-5.2,18-3.3
			c0.1,0.1,0.5,0.4,0.2,1.8c-1.8,7.1-9.4,19.7-12.7,25.1C153.2,72.6,152.3,71.8,151.6,71.2z"/>
		<path class="st11" d="M189.8,187.6c0,0.1,0,0.1,0.1,0.1c0,0,0,0-0.1,0.1c-0.2,0.3-0.9,0.8-1.7,1.2c-1.6,0.9-3.5,1.6-5.6,2.3
			c-4.1,1.4-8.5,2.6-13,3.1c-4.6,0.5-9.3,0.4-14-0.6c-4.7-1-9.2-2.9-13.5-5.4c-3-1.8-5.8-3.8-8.6-6c0,0-0.1,0-0.1-0.1
			c-0.2-0.1-0.3-0.3-0.5-0.4c-1-0.8-1.9-1.6-2.9-2.4c-3.8-3.3-7.3-6.9-11-10.2c-1.9-1.6-3.8-3.3-6-4.6c-1.1-0.7-2.3-1.3-3.7-1.7
			c-0.7-0.2-1.4-0.4-2.1-0.4c-0.7-0.1-1.8,0-2.2,0.1l-0.9,0.1c-0.2,0-0.5,0.1-0.7,0.1c-0.5,0-1,0.1-1.4,0.1c-0.5,0-1,0-1.4,0
			c-0.5,0-1-0.1-1.4-0.1c-1.9-0.2-3.8-0.6-5.6-1.1c-3.6-1-6.8-2.3-9.7-3.4s-5.4-2.2-7.5-3.1c-4.2-1.8-6.6-2.7-6.6-2.7
			s0.4,0.5,1.4,1.4c0.9,0.8,2.3,2.1,4.1,3.4c0.9,0.7,2,1.4,3.1,2.2c1.2,0.8,2.5,1.6,3.9,2.3c2.8,1.5,6.2,3.1,10.1,4.2
			c1.9,0.6,4,1.1,6.3,1.4c0.6,0.1,1.1,0.1,1.7,0.2c0.6,0.1,1.2,0.1,1.8,0.1c0.6,0,1.2,0,1.8-0.1c0.3,0,0.6-0.1,0.9-0.1l0.5-0.1
			l0.2,0c0.1,0,0.1,0,0.1,0c0.3,0,0.6-0.1,0.7-0.1l0.2,0l0.3,0c0.4,0,0.8,0.1,1.2,0.3c0.8,0.3,1.7,0.7,2.6,1.3
			c1.7,1.1,3.5,2.6,5.2,4.2c2.2,2,4.4,4.2,6.7,6.4l4.6,8.8c0,0,4,27.4,11.8,42.1c-24,3.9-48.4-1.1-69-14.3
			c-7.7-4.9-14.6-10.8-20.6-17.5c0.2-1.1,0.3-2.3,0.4-3.4c0.2-2.1,0.3-4.3,0.4-6.3c0.1-2.1,0.2-4.2,0.3-6.3c0-2.1,0.2-4.2,0.3-6.3
			c0.1-2.1,0.1-4.2,0.3-6.3l0.4-6.3c0.1-2.1,0.3-4.2,0.5-6.3c0.2-2.1,0.4-4.2,0.6-6.3l0.7-6.3l0.9-6.2c0.3-2.1,0.7-4.1,1-6.2
			c0.3-2.1,0.7-4.1,1.1-6.2c0.4-2.1,0.8-4.1,1.2-6.2c0.4-2.1,0.9-4.1,1.4-6.1c0.5-2,1-4.1,1.5-6.1c0.5-2,1.1-4.1,1.7-6l0.2-0.6
			l-0.2-0.7c-0.7-2.4-1.3-4.9-1.9-7.4c-0.5-2.5-0.9-5-1.2-7.6c-0.3-2.5-0.4-5-0.2-7.4c0.2-2.5,0.7-4.5,1.7-6.9
			c1.9-4.8,4-9.6,6.3-14.3c2.3-4.7,4.6-9.3,7.1-13.8c1.3-2.2,2.6-4.4,4-6.4c0.4-0.5,0.8-1,1.1-1.4c0.2,0.1,0.4,0.2,0.6,0.3
			c0.3,0.6,0.5,1.3,0.7,2c0.4,1.2,0.7,2.4,1,3.6c0.6,2.5,1.2,5,1.7,7.6c1.1,5.1,2,10.2,2.9,15.4c0.4,2.6,0.9,5.1,1.7,7.7
			c0.7,2.5,1.6,5.1,3,7.5c0.6-2.7,0.8-5.4,0.8-8.1c0-1.6-0.1-3.1-0.3-4.7c0.1-0.2,0.3-0.3,0.4-0.5c0.6-0.7,1.5-1.7,2.6-2.8
			c0.5-0.5,1.1-1.1,1.7-1.7c0.6-0.5,1.3-1.1,1.9-1.4c0.3-0.2,0.6-0.3,0.9-0.4c0,0,0.1-0.1,0.1-0.1c0,0,0,0,0,0h0.2
			c0.2,0.1,0.6,0.3,1,0.4c0.4,0.2,0.9,0.4,1.4,0.7c1.9,1,3.7,2.1,5.5,3.1c1.8,1,3.4,2,4.9,2.7c1.5,0.7,2.8,1.2,3.8,1.5
			c1,0.3,1.6,0.4,1.6,0.4s-0.3-0.6-0.9-1.3c-0.6-0.8-1.5-1.9-2.7-3c-0.8-0.8-1.8-1.5-2.8-2.3c3-5.4,5.8-7.4,7.3-6.9
			c3.4,1,11.8,4.9,30.7,20.3c10.6,8.7,35.6,38.7,51.5,58.7c-6.3,0.4-13.3,2.3-17.8,6.3c-4.6,4.2-9.8,14.3-11.7,18.3
			c-2-0.8-3.7-1.5-5.1-2.2c-7.2-3.3-14.8-5.9-15.1-6.1l-3.9-1.3l0.7,4.1c0.5,2.8,2,11,4.6,19.2c2.8,8.9,7,17.6,12.7,19.3
			c2.8,0.8,5.4,1.1,7.8,1.1c6.6,0,11.2-2.5,12.3-3.1c0.6-0.4,1.1-1,1.3-1.8c0.3-1.5-0.5-2.6-2.6-5.2c-1.9-2.5-4.9-6.3-5.5-9.2
			c-0.1-0.3-0.1-0.5-0.2-0.8c-0.4-2.4-0.5-4.7-0.5-6.4c0.7,0.2,1.4,0.5,2,0.7c0.1,1.2,0.2,2.8,0.6,5c0.1,0.4,0.2,0.9,0.3,1.4
			c0.2,0.8,0.4,1.7,0.8,2.7c0.1,0.2,0.1,0.4,0.2,0.6c0.1,0.2,0.2,0.4,0.3,0.6l0.1,0.3l0.1,0.2l0.3,0.5c0.1,0.2,0.3,0.4,0.4,0.6
			l0.4,0.5c0.3,0.4,0.5,0.7,0.8,1c1.1,1.4,2.4,2.6,3.6,3.9c0.6,0.6,1.3,1.2,1.9,1.9C189.1,186.5,189.7,187.2,189.8,187.6z"/>
		<path class="st12" d="M174.2,159.8c1.9-3.9,6.6-13.1,10.6-16.7c4.4-4,12.3-5.5,18.2-5.3c5.5,7,9.5,12.3,10.6,14
			c-0.4,1.9-1.8,6.6-2.7,7.8c-3.9,1.9-13,5.9-16.8,5.9c0,0,0,0,0,0C191.2,165.6,182,162.7,174.2,159.8z"/>
		<path class="st7" d="M152.1,136.6c0,0,6.7,4.3,9.3,5.3s-4.6,6.6-10.6,1.2C144.8,137.6,149.1,134.8,152.1,136.6z"/>
		<path class="st7" d="M139.9,95.9c0,0-8.6-16.6-23.5-17.8c-14.9-1.2-20.4,7.7-24,2.2c-3.6-5.5,17.9-13.7,29.8-7.9
			c14.5,7.1,17.3,16.3,20,22C144.9,100.2,141.4,98.4,139.9,95.9z"/>
		<path class="st7" d="M103.8,152.2c-0.3,1.4-2.8,2-5.6,1.3c-2.8-0.6-4.7-2.3-4.4-3.7c0.3-1.4,2.8-2,5.6-1.3
			C102.2,149.2,104.1,150.8,103.8,152.2z"/>
		<path class="st7" d="M155.9,153.1c0,0,19.2-3.5,25.2-11s-9,17.3-9,17.3L155.9,153.1z"/>
		<path class="st7" d="M195.9,137.1c0,0,14,12.9,15.1,14.9c1.1,2,0,8.8,0,8.8l5.2-7.7l-4.5-9.7l-9.5-7.6L195.9,137.1z"/>
		<path class="st13" d="M196.3,135.7c0,0-30-36.3-40.1-46.1c0,0-6.7-0.1-11.6-4.6c-4.8-4.6-3.1-11.7-3.1-11.7s-21.9-16.1-24.9-16.2
			c-3.1-0.1-6,5.6-6,5.6l-3.2-0.9l7.3-9.7l12.2,3.7l33.2,27.2l42.5,50.2L196.3,135.7z"/>
		<path class="st13" d="M79.7,34.1c0,0-16.6,34.2-17.5,40.3s3.3,31.2,3.3,31.2s-13.1,75.2-6.1,105.8l-11-8.9l0.6-35l9.7-65l-2-26.4
			l7.7-20.1l9.8-18.6L79.7,34.1z"/>
		<path d="M210.1,138.8c-5.4-6.9-12.3-15.6-19-23.8c-6.2-7.6-15.3-18.5-23.7-27.8c-3.4-3.8-6.7-7.3-9.6-10.3
			c-1.3-1.3-2.5-2.5-3.7-3.5c-0.4-0.4-0.8-0.7-1.2-1.1c-0.5-0.4-0.9-0.8-1.3-1.1c-0.7-0.6-1.4-1.1-2-1.7h0c-3.7-3-7.1-5.6-10.1-7.8
			c0,0,0,0,0,0c-1.4-1.1-2.8-2-4.1-2.9c0,0,0,0,0,0c-1.6-1.1-3.1-2.1-4.4-2.9c-5.7-3.6-9.4-5.3-11.8-6c-0.9-0.3-2.2-0.4-3.7,0
			c-0.7,0.2-1.5,0.5-2.2,1c-0.1,0-0.1,0.1-0.2,0.1c-0.5,0.3-1.1,0.8-1.7,1.3c-0.7,0.6-1.4,1.3-2.1,2.2c-1.1,1.4-2.3,3.1-3.5,5.3
			c-0.1,0.3-0.3,0.5-0.4,0.8c0,0.1-0.1,0.1-0.1,0.2l2.2,1.1l0,0l2.2,1.1c0-0.1,0.1-0.2,0.1-0.3c0-0.1,0.1-0.1,0.1-0.2
			c0.7-1.3,1.3-2.4,2-3.3c0.6-0.9,1.1-1.6,1.7-2.2c0.9-1,1.8-1.7,2.6-2.1c0.6-0.3,1.1-0.4,1.6-0.2c2.8,0.8,9,3.6,21.8,13.3
			c1.2,0.9,2.5,1.9,3.9,3c0.1,0.1,0.2,0.1,0.2,0.2c0,0,0,0,0,0c1.5,1.2,3.1,2.5,4.8,3.8c10.6,8.7,35.6,38.7,51.5,58.7
			c0.1,0.2,0.3,0.3,0.4,0.5c0.5,0.6,0.9,1.1,1.3,1.7c0.5,0.7,1,1.3,1.5,1.9c0,0,0,0,0,0c0.6,0.7,1.1,1.4,1.7,2.1
			c1.4,1.8,2.7,3.4,3.8,4.9c0.3,0.3,0.5,0.7,0.8,1c1.4,1.8,2.5,3.2,3.2,4.3c0.2,0.3,0.4,0.6,0.6,0.8c0,0.1,0.1,0.1,0.1,0.2
			c0.1,0.1,0.2,0.3,0.3,0.4c0.1,0.1,0.1,0.1,0.1,0.2c-0.3,1.7-1.5,5.5-2.3,7.2c0,0-0.1,0.1-0.1,0.1c0,0.1-0.1,0.1-0.1,0.2
			c-0.1,0.1-0.1,0.2-0.2,0.3c-3.9,2-13,5.9-16.8,5.9c0,0,0,0,0,0c-0.8,0-2.1-0.2-3.7-0.6c-0.1,0-0.1,0-0.2,0
			c-2.8-0.7-6.4-1.8-10.2-3c-1-0.3-2-0.7-3-1c-0.5-0.2-1-0.4-1.5-0.5c-0.3-0.1-0.6-0.2-0.9-0.3c-0.2-0.1-0.4-0.1-0.6-0.2v0
			c-0.6-0.2-1.3-0.5-1.9-0.7c-0.7-0.3-1.3-0.5-2-0.8c-0.5-0.2-1-0.4-1.4-0.6c-0.5-0.2-0.9-0.4-1.3-0.6c-0.3-0.1-0.6-0.3-0.9-0.4
			c-0.5-0.2-1-0.5-1.5-0.7l0,0c-0.4-0.2-0.9-0.4-1.3-0.6c-0.5-0.2-0.9-0.4-1.3-0.6c-0.5-0.2-0.9-0.4-1.3-0.6l0,0
			c-0.4-0.2-0.9-0.4-1.3-0.5c-0.8-0.4-1.7-0.7-2.5-1c0,0,0,0,0,0c0,0,0,0,0,0c-0.4-0.2-0.8-0.3-1.2-0.5c-3.4-1.3-5.9-2.2-6.1-2.2
			l-2.8-0.9l0,0l-0.7-0.2l-0.4-0.2h0l0.3,2l0.3,2.1c0.1,0.5,0.2,1.3,0.4,2.2c0,0.1,0.1,0.3,0.1,0.5c0,0.1,0,0.2,0.1,0.3
			c0,0.2,0.1,0.3,0.1,0.5c0.1,0.5,0.2,1,0.3,1.6c0.1,0.4,0.2,0.8,0.3,1.2c0.3,1.4,0.6,2.9,1,4.5c0.1,0.5,0.3,1,0.4,1.5
			c0.2,0.7,0.4,1.5,0.6,2.3c0.4,1.5,0.9,3,1.4,4.5c0,0,0,0.1,0,0.1c0.2,0.6,0.4,1.2,0.6,1.9c0.1,0.2,0.2,0.5,0.2,0.7
			c0.7,2.1,1.6,4.2,2.5,6.1c0.1,0.2,0.2,0.5,0.3,0.7c0.8,1.7,1.7,3.2,2.6,4.5c0.1,0.2,0.3,0.4,0.4,0.6c0.7,1,1.5,1.8,2.2,2.5
			c0.1,0.1,0.2,0.2,0.4,0.3c0.2,0.2,0.4,0.3,0.6,0.5c0.1,0.1,0.2,0.2,0.4,0.3c0.2,0.2,0.5,0.3,0.7,0.4c0.1,0,0.2,0.1,0.3,0.2
			c0.2,0.1,0.3,0.2,0.5,0.2c0.3,0.2,0.7,0.3,1,0.4c0.7,0.2,1.4,0.4,2.1,0.5c0.3,0.1,0.7,0.1,1,0.2c0.7,0.1,1.3,0.2,1.9,0.3
			c1,0.1,1.9,0.1,2.7,0.1c0.4,0,0.8,0,1.2,0c0.3,0,0.5,0,0.8-0.1c0.3,0,0.6,0,0.9-0.1c0.4,0,0.8-0.1,1.2-0.2c0,0,0.1,0,0.1,0h0
			c0.4-0.1,0.8-0.1,1.2-0.2c0.5-0.1,0.9-0.2,1.4-0.3c0.4-0.1,0.8-0.2,1.2-0.4c0,0,0,0,0,0c0.2-0.1,0.4-0.1,0.6-0.2
			c0.1,0,0.2-0.1,0.4-0.1c0.1,0,0.2-0.1,0.3-0.1c0,0,0.1,0,0.1,0c0.3-0.1,0.6-0.3,1-0.4c0,0,0.1,0,0.1,0c0.1,0,0.1-0.1,0.2-0.1
			c0,0,0,0,0,0c0.2-0.1,0.3-0.2,0.5-0.2c0.5-0.3,1-0.5,1.2-0.7c0.3-0.2,0.5-0.4,0.7-0.6c0.3-0.3,0.4-0.7,0.5-1.2
			c0.2-1.1-0.2-2-1.2-3.4c-0.4-0.5-0.8-1.1-1.4-1.8c-0.1-0.1-0.2-0.3-0.4-0.5c-0.1-0.2-0.3-0.4-0.4-0.5c-0.1-0.1-0.1-0.2-0.2-0.3
			c-0.1-0.1-0.1-0.2-0.2-0.3c-1-1.3-2-2.7-2.8-4.1c-0.5-0.9-1-1.8-1.3-2.6c-0.1-0.3-0.2-0.6-0.3-0.9c-0.1-0.4-0.2-0.7-0.2-1.1
			c0-0.3-0.1-0.6-0.1-0.9c-0.2-1.5-0.3-3-0.3-4.2c0-0.4,0-0.7,0-1c0,0,0,0,0,0c0.1,0,0.2,0,0.2,0.1c0.1,0,0.1,0,0.2,0.1
			c0.5,0.2,1.1,0.4,1.6,0.6c0.2,0,0.3,0.1,0.4,0.1c6.1,2,12.1,3.7,15,3.7c6.2,0,19.1-6.5,19.3-6.6c3.3-1.7,5.2-11.6,5.2-12.6
			C218.7,150.3,218.8,149.9,210.1,138.8z M165.5,186.5c-2.8-0.8-5.5-5.6-7.8-11.9c-2.1-5.6-3.9-12.3-5.1-18.3
			c2.9,1.1,6.8,2.6,10.6,4.4c2,0.9,5.1,2.2,8.6,3.5c-0.1,2-0.2,5.3,0.4,8.9c0.1,0.4,0.1,0.8,0.2,1.2c0.9,3.9,4.1,8.1,6.4,11.2
			c0.2,0.2,0.3,0.4,0.5,0.6C176.7,187.1,171.7,188.3,165.5,186.5z"/>
		<path d="M48.6,201.4c-0.7-2.1-1.1-4.2-1.4-6.3c-0.3-2.1-0.6-4.2-0.6-6.4c-0.1-2.1-0.1-4.3-0.2-6.4c-0.1-2.1,0-4.3,0.1-6.4
			c0.1-2.1,0.1-4.3,0.2-6.4l0.4-6.4c0.1-2.1,0.4-4.2,0.5-6.4c0.2-2.1,0.4-4.2,0.6-6.4l0.7-6.3l0.9-6.3c0.3-2.1,0.7-4.2,1-6.3
			c0.3-2.1,0.7-4.2,1.1-6.3c0.4-2.1,0.8-4.2,1.3-6.3c0.4-2.1,0.9-4.2,1.4-6.2c0.5-2.1,1-4.1,1.6-6.2c0.6-2.1,1.1-4.1,1.7-6.2l0,1.3
			c-0.8-2.6-1.5-5.2-2-7.8c-0.6-2.6-1.1-5.3-1.4-7.9c-0.3-2.7-0.5-5.4-0.3-8.3l0.1-1.1l0.1-1.1l0.1-1.1c0.1-0.4,0.2-0.7,0.3-1.1
			l0.3-1.1c0.1-0.4,0.2-0.6,0.3-1l0.7-1.9c1.9-5,3.9-9.9,6.1-14.7c2.2-4.8,4.5-9.6,7.1-14.3c1.3-2.3,2.7-4.7,4.3-6.9
			c0.9-1.1,1.7-2.3,3.1-3.4c0.4-0.3,0.8-0.6,1.4-0.9c0.2-0.1,0.4-0.1,0.6-0.2c0.2-0.1,0.4-0.1,0.7-0.1c0.5,0,1.1,0,1.7,0.2
			c0.3,0.1,0.5,0.3,0.8,0.4c-0.2-0.2,0.4,0.3,0.4,0.3l0,0l0,0l0.1,0.1c0.1,0.2,0.2,0.2,0.4,0.5c0.2,0.3,0.4,0.5,0.6,0.8l0.1,0.2
			l0.1,0.1l0.1,0.3c0.7,1.5,1.1,2.8,1.5,4.1c0.4,1.3,0.7,2.6,1.1,3.9c0.6,2.6,1.2,5.2,1.7,7.8c1,5.2,1.8,10.4,2.6,15.6
			c0.4,2.6,0.7,5.2,0.7,7.9c0,2.7-0.1,5.3-0.8,8.1c-1.4-2.5-2.2-5-3-7.5c-0.7-2.5-1.2-5.1-1.7-7.7C85,58.8,84.1,53.7,83,48.6
			c-0.5-2.5-1.1-5.1-1.7-7.6c-0.3-1.2-0.6-2.5-1-3.7c-0.4-1.2-0.8-2.4-1.2-3.3L79,34l0-0.1l0,0c0,0,0,0,0,0l0,0c0,0-0.1,0-0.1-0.1
			l-0.2-0.2l-0.1-0.1l0,0l0,0c-0.1-0.1,0.5,0.5,0.3,0.3c0.1,0.1,0.2,0.1,0.3,0.2C79.5,34,79.8,34,80,34c0.1,0,0.2,0,0.2,0
			s0.1,0,0.1,0c0,0-0.1,0-0.2,0.2c-0.6,0.5-1.4,1.5-2.1,2.4c-1.4,2-2.8,4.2-4,6.4c-2.6,4.5-4.9,9.1-7.1,13.8
			c-2.2,4.7-4.4,9.5-6.3,14.2c-1,2.5-1.6,4.5-1.7,6.9c-0.2,2.4-0.1,4.9,0.2,7.4c0.3,2.5,0.7,5,1.2,7.6c0.5,2.5,1.1,5,1.9,7.4
			l0.2,0.7l-0.2,0.6c-0.6,1.9-1.2,4-1.7,6c-0.6,2-1,4.1-1.5,6.1c-0.5,2.1-0.9,4.1-1.4,6.1c-0.4,2.1-0.9,4.1-1.2,6.2
			c-0.4,2.1-0.8,4.1-1.1,6.2c-0.3,2.1-0.7,4.1-1,6.2l-0.9,6.2l-0.7,6.3c-0.3,2.1-0.4,4.2-0.6,6.3c-0.2,2.1-0.4,4.2-0.5,6.3l-0.4,6.3
			c-0.1,2.1-0.2,4.2-0.3,6.3c-0.1,2.1-0.3,4.2-0.3,6.3c-0.1,2.1-0.2,4.2-0.2,6.3c-0.1,2.1-0.2,4.2-0.4,6.3
			C49.5,197.1,49.2,199.3,48.6,201.4z"/>
		<path d="M173.4,161.6l-3.7-1.7c0.3-0.6,6.7-14.8,12.4-19.9c5.6-5.1,15.4-6.8,22.5-6.3l-0.3,4.1c-6.1-0.5-14.8,1-19.5,5.2
			C179.7,147.6,173.4,161.5,173.4,161.6z"/>
		<path class="st9" d="M205,156c0,0-0.1-5.3-6.4-6.3s-8,0.9-11-3l6.3,8.1L205,156z"/>
		<path d="M187.6,146.7c0,0,3.6,5.4,6.8,5.1c3.3-0.3,9,0.1,10.6,4.2c0,0-6.8,0.1-10.2,1.2C191.4,158.4,187.6,146.7,187.6,146.7z"/>
		<g>
			<path class="st7" d="M100.8,103.5c0.8-2.3,2.2-4.2,4.3-5.3c0.5-0.3,1.1-0.5,1.6-0.7l0.8-0.3c0.3-0.1,0.7-0.2,1-0.2l0.5-0.1l0.4,0
				l0.9-0.1c0.6,0,1.2,0,1.8,0.1c1.2,0.1,2.3,0.4,3.4,1c1.1,0.5,2.1,1.2,3.1,2.1c1.9,1.7,3.6,3.8,5,6.1c1.4,2.3,2.6,4.8,3.7,7.4
				c0.5,1.3,1,2.6,1.4,3.9c0.3,0.8,0.5,1.7,0.8,2.5c-0.4,0.3-0.9,0.5-1.3,0.8c-0.8,0.5-1.7,0.9-2.5,1.4c-1.7,0.9-3.4,1.7-5.1,2.2
				c-0.9,0.3-1.7,0.5-2.6,0.7s-1.7,0.3-2.6,0.3s-1.6,0-2.4-0.1c-0.8-0.1-1.5-0.4-2.3-0.6c-0.3-0.1-0.5-0.2-0.8-0.4
				c0.7,0,1.4-0.1,2.1-0.2c5.6-1.2,9.2-6.8,8-12.4c-0.2-1-0.6-1.9-1-2.8c0.2-0.7,0.3-1.5,0.1-2.3c-0.5-2.4-2.9-3.9-5.2-3.4
				c-0.5,0.1-0.9,0.3-1.3,0.5c-1.6-0.4-3.3-0.5-5-0.1c-3.6,0.8-6.3,3.3-7.6,6.6C100,107.7,100.2,105.5,100.8,103.5z"/>
			<path d="M87.8,121.8c0.3-0.5,0.6-0.9,0.9-1.4c0.4-0.4,0.7-0.9,1.2-1.2c0.8-0.8,2-1.4,3.2-1.7c1.3-0.4,2.5-0.3,3.8-0.1
				c1.2,0.2,2.3,0.6,3.3,1c1,0.4,2,0.9,2.9,1.4c0.9,0.5,1.8,1.1,2.7,1.6l2.6,1.6l0.6,0.4l0.6,0.3c0.5,0.3,0.7,0.4,1.1,0.5
				c0.7,0.3,1.5,0.5,2.3,0.6c0.8,0.1,1.6,0.2,2.4,0.1c0.8-0.1,1.7-0.1,2.6-0.3s1.7-0.4,2.6-0.7c1.7-0.6,3.5-1.4,5.1-2.2
				c0.8-0.4,1.7-0.9,2.5-1.4c0.8-0.5,1.7-1,2.4-1.5l-0.7,2.2c-0.3-1.3-0.7-2.6-1.1-4c-0.4-1.3-0.9-2.6-1.4-3.9
				c-1-2.6-2.2-5.1-3.7-7.4c-1.4-2.3-3.1-4.5-5-6.1c-1-0.8-2-1.5-3.1-2.1c-1.1-0.5-2.2-0.9-3.4-1c-0.6-0.1-1.2,0-1.8-0.1l-0.9,0.1
				l-0.4,0l-0.5,0.1c-0.3,0.1-0.8,0.1-1,0.2l-0.8,0.3c-0.5,0.2-1.1,0.4-1.6,0.7c-2.1,1.1-3.5,3-4.3,5.4c-0.8,2.3-0.9,5-0.8,7.7
				c0.1,1.3,0.3,2.7,0.5,4c0.3,1.3,0.6,2.7,1,3.9l-4.2,1.4c-0.5-1.6-0.8-3-1.1-4.5c-0.3-1.5-0.5-3-0.6-4.5c-0.2-3.1-0.1-6.3,1-9.4
				c0.5-1.6,1.3-3.1,2.4-4.5c1.1-1.4,2.4-2.5,3.9-3.3c0.7-0.4,1.5-0.7,2.3-1.1l1.3-0.4c0.4-0.1,0.7-0.2,1.1-0.3l0.5-0.1l0.1,0l0.1,0
				h0l0.2,0l0.3,0l1.2-0.1c0.8,0,1.7-0.1,2.5,0.1c0.9,0.1,1.7,0.3,2.5,0.5c0.8,0.3,1.6,0.5,2.3,0.9c1.5,0.7,2.9,1.6,4.1,2.7
				c2.4,2.1,4.3,4.6,5.9,7.2c1.6,2.6,2.9,5.3,4,8.1c0.6,1.4,1.1,2.8,1.5,4.2c0.5,1.4,0.9,2.8,1.3,4.3l0.3,1.2l-1,1
				c-0.8,0.8-1.6,1.5-2.5,2.2c-0.9,0.7-1.7,1.3-2.6,1.9c-1.8,1.2-3.8,2.2-5.9,3c-2.1,0.8-4.4,1.4-6.8,1.5c-1.2,0.1-2.4,0-3.7-0.2
				s-2.4-0.6-3.6-1.1c-0.6-0.3-1.3-0.7-1.6-0.9l-0.3-0.2l-0.4-0.3l-0.6-0.4L103,126c-0.8-0.6-1.6-1.2-2.4-1.7
				c-0.4-0.3-0.8-0.5-1.2-0.8c-0.4-0.3-0.8-0.5-1.2-0.7c-0.8-0.5-1.6-0.9-2.3-1.3c-0.8-0.3-1.5-0.6-2.3-0.7
				c-0.8-0.1-1.7-0.1-2.6,0.1c-0.5,0.1-0.9,0.3-1.4,0.4C88.9,121.5,88.4,121.7,87.8,121.8z"/>
			<path d="M120,111.4c1.2,5.6-2.3,11.2-8,12.4c-5.6,1.2-11.2-2.3-12.4-8c-1.2-5.6,2.3-11.2,8-12.4
				C113.2,102.1,118.8,105.7,120,111.4z"/>
			<path class="st7" d="M119.1,106.3c0.5,2.4-1,4.7-3.4,5.2s-4.7-1-5.2-3.4c-0.5-2.4,1-4.7,3.4-5.2
				C116.3,102.5,118.6,104,119.1,106.3z"/>
			<path d="M139.3,111.7c0,0-0.6-1.1-1.6-2.8c-1.1-1.8-2.7-4.2-4.8-7c-1.1-1.4-2.3-2.8-3.6-4.2c-1.3-1.4-2.8-2.8-4.5-4.1
				c-1.6-1.3-3.4-2.5-5.3-3.4c-1.9-0.9-3.9-1.7-6-2.1c-1.1-0.2-2.1-0.4-3.2-0.4l-0.3,0h-0.4l-0.9,0l-0.4,0l-0.4,0l-0.7,0
				c-2,0.2-4,0.6-5.7,1.5c-1.7,0.8-3.2,2-4.4,3.4c-1.2,1.4-2.1,2.9-2.9,4.4c-1.4,3-2.1,5.9-2.6,7.9c-0.4,2-0.5,3.2-0.5,3.2
				s-0.3-1.2-0.3-3.3c0-1.1,0-2.3,0.1-3.8c0.1-1.5,0.4-3.1,1-4.9c0.5-1.8,1.4-3.7,2.6-5.5c1.2-1.8,3-3.6,5.2-4.8
				c2.2-1.3,4.7-2,7.2-2.3l1-0.1l0.5,0l0.4,0l0.9,0h0.4h0.2l0.1,0l0.2,0c1.3,0.1,2.6,0.2,3.8,0.5c2.5,0.5,4.9,1.4,7.1,2.6
				c2.2,1.2,4.2,2.7,5.9,4.3c1.7,1.6,3.2,3.3,4.4,5c1.3,1.7,2.3,3.4,3.2,4.9c1.8,3.2,2.8,6,3.5,8
				C139.1,110.5,139.3,111.7,139.3,111.7z"/>
		</g>
		<path d="M66.3,102.4c0,0,5.9-9.9,5.8-13s-8.1-26,5.4-47c0,0,5,22.1,5.4,27.7s-4.2,13-4.2,13l-4.8-15.8c0,0,1.3,18.4,1.5,22
			C75.6,93,66.3,102.4,66.3,102.4z"/>
		<path d="M171.6,49.5c-2,7.8-9.8,20.8-13.2,26.4c-0.2,0.4-0.4,0.7-0.6,1c-0.6,1-1,1.6-1.1,1.7l-4.2-2.7c0,0,0.6-1,1.6-2.5
			c0,0,0,0,0,0c0-0.1,0.1-0.1,0.1-0.2c0.1-0.2,0.3-0.5,0.4-0.7c0.3-0.5,0.6-1,1-1.6c0.2-0.4,0.5-0.8,0.7-1.2
			c0.1-0.2,0.3-0.5,0.4-0.7c0.3-0.4,0.5-0.8,0.8-1.3c0.1-0.2,0.2-0.4,0.3-0.6c0.2-0.4,0.4-0.7,0.6-1.1c0-0.1,0.1-0.1,0.1-0.2
			c1.1-1.9,2.2-3.9,3.2-5.9c0.2-0.4,0.4-0.7,0.5-1c0,0,0-0.1,0-0.1c1-1.9,1.9-3.8,2.6-5.6c0.8-1.8,1.4-3.4,1.7-4.8
			c0.1-0.3,0.1-0.6,0.1-0.8c0-0.2,0-0.3,0-0.4c0-0.1,0-0.2-0.1-0.3c0-0.1-0.1-0.1-0.1-0.2c0,0,0,0-0.1-0.1c0,0,0,0,0-0.1
			c0,0,0,0,0,0c-0.1-0.1-0.2-0.1-0.3-0.2c-1.3-0.7-4.1-0.6-7.2-0.1c-0.4,0.1-0.9,0.2-1.3,0.3c-0.3,0.1-0.7,0.2-1,0.2
			c-0.9,0.2-1.9,0.5-2.8,0.8c-2.1,0.7-4,1.4-5.4,2.2c-0.5,0.3-1.1,0.6-1.7,1c-1.2,0.7-2.5,1.6-3.8,2.5c-0.1,0.1-0.2,0.1-0.3,0.2
			c-2.7,1.9-5.5,3.9-7.4,5.4c0,0,0,0,0,0c-0.8,0.6-1.4,1-1.9,1.4c-0.2,0.2-0.4,0.3-0.6,0.4c-0.2,0.2-0.3,0.2-0.3,0.3l-1.1-1.4
			l-0.6-0.8l-1.3-1.8c0.1-0.1,0.6-0.5,1.4-1.1c3.1-2.4,10.6-7.9,15.3-10.5c4.5-2.5,18.1-7,23.5-2.8
			C170.9,43.4,172.7,45.5,171.6,49.5z"/>
		<path d="M138,63.2c0,0,8.1-8.8,11.6-11.1s12.9-5.4,12.3-2c-0.6,3.4-13.6,9.3-13.6,9.3s10.3-2.4,9.7-0.5s-10.1,12.5-10.1,12.5
			L138,63.2z"/>
		<path d="M119.5,134.4l6.3,5.7c1.2,1.1,2.8,1.8,4.5,2l14.9,1.7l-15.4-3.7c-0.9-0.2-1.7-0.5-2.4-1L119.5,134.4z"/>
		<path d="M143.5,111.8l12,2.3c3.4,0.6,6,3,8.2,5.5c2.6,2.9,5.2,5.6,7.8,8.5c2.7,2.9,5.4,5.9,8,8.8c-2.9-2.4-5.8-4.9-8.7-7.3
			c-2.5-2.1-5-4.2-7.5-6.3c-2.8-2.3-5.4-5.3-8.8-6.8L143.5,111.8z"/>
		<path class="st7" d="M191.3,192.3c-1.4,4-4.5,7.2-7.9,9.7c-3.4,2.5-7.3,4.3-11,6.2c-2.2,1.1-4.3,2.3-6.7,2.9
			c-2.3,0.6-4.7,0.6-7,0.6c-2.4-0.1-4.8-0.2-7-1c-2-0.7-3.8-1.9-5.6-3.1c-4.2-2.9-8.2-5.9-11.8-9.5c-1.3-1.3-2.5-2.6-3.1-4.2
			c-0.6-1.6-0.7-3.2-0.4-4.9c0.2-2.6,0.7-5.2,2.2-7.2c0.1-0.1,0.1-0.1,0.1-0.2c1.3-1.6,3.1-2.6,4.9-3.6c4.3-2.3,8.8-4.5,13.5-6
			c2.8,8.9,7,17.6,12.7,19.3c2.8,0.8,5.4,1.1,7.8,1.1c3.6,0,7.2-0.7,10.5-2.2c3.2-1.4,1.1-7-0.5-9.1c-1.8-2.3-3.9-5-4.5-7.9
			c-0.3-1.5-0.5-3.1-0.7-4.6c-0.1-1-0.1-2.1,0.5-2.9c0.7,0,1.4,0.4,1.9,0.9s0.8,1.2,1.1,1.8c1.3,2.9,2.6,5.8,3.9,8.6
			c1.1,2.4,3.2,4.7,5.1,6.6c0.7,0.7,1.5,1.4,2.1,2.3C192.3,187.8,192.1,190.2,191.3,192.3z"/>
		<path class="st7" d="M132.2,194.1c0,0,4.3-4.1,3.3-5.9c-1-1.8-9.7-17.1-22.8-15.3c-13.2,1.8,1.9,6.9,1.9,6.9l9.3,9.3L132.2,194.1z
			"/>
		<path class="st7" d="M105.9,168.1c0,0-11.9-0.2-13.1-6.3c-1.1-6.1,8.9,0.4,14.2,1.3C112.3,164,109.1,168.4,105.9,168.1z"/>
		<path class="st14" d="M98.7,185.5v4.4l-1,40.2l0,1.4L75,221.8c-1.3-14.6-0.3-29.8,1.2-41.7c0.1-0.7,0.2-1.3,0.3-2
			c2.8,1.7,5.7,3.1,8.7,4.3c2.1,0.9,4.3,1.6,6.4,2.1c1,0.3,2,0.4,3.1,0.6C95.9,185.3,97.4,185.5,98.7,185.5z"/>
		<path class="st7" d="M143.8,231.2l-17.4,2.8l-28.7-3.9l-4.6-0.6c-2.3-14.6-2.4-29.4-1.8-41.2c0.1-1.3,0.1-2.5,0.2-3.7
			c1,0.3,2,0.4,3.1,0.6c1.4,0.2,2.8,0.4,4.1,0.3c0.2,0,0.4,0,0.6,0c1.5-0.1,3.1-0.3,4.7-0.7l2.5-0.6c0.4-0.1,0.8-0.2,1.4-0.3
			c0.5-0.1,1.1-0.2,1.6-0.2c2.1-0.1,4.1,0.2,5.9,0.7c3.7,1.1,6.9,2.8,10,4.6c1.5,0.9,3,1.9,4.4,2.8c0.6,0.4,1.3,0.8,1.9,1.3l3,9.3
			L143.8,231.2z"/>
		<path d="M195.2,189.7c0,1.1-0.3,2.2-0.8,3.2c-0.5,0.9-1.1,1.6-1.6,2.3c-0.5,0.7-1.1,1.4-1.6,2.1c-1.1,1.4-2.3,2.7-3.5,4
			c-2.5,2.6-5.2,4.9-8.1,7c-5.9,4.2-13.2,6.9-20.8,6.9c-1,0-1.9-0.1-2.8-0.2c-0.9-0.1-2-0.3-3-0.6c-2-0.6-3.8-1.4-5.4-2.4
			c-2.3-1.4-4.2-2.9-6.1-4.4c-0.6-0.5-1.2-1-1.8-1.4c-0.2-0.2-0.5-0.4-0.7-0.6c-1.1-0.9-2.2-1.8-3.3-2.6c-0.3-0.2-0.6-0.5-0.9-0.7
			c-1.3-1-2.6-1.9-3.9-2.8c-0.6-0.4-1.3-0.9-1.9-1.3c-0.8-0.5-1.5-1-2.3-1.5l-4.2-2.8c-2.8-1.8-5.6-3.4-8.5-4.4
			c-1.4-0.5-2.9-0.7-4.2-0.7c-1.2,0-3,0.4-4.8,0.6c-1.8,0.3-3.6,0.5-5.5,0.4c-0.2,0-0.4,0-0.6,0c-1.7-0.1-3.3-0.4-4.9-0.8
			c-0.9-0.2-1.7-0.4-2.5-0.7c-2.6-0.8-5.1-1.9-7.5-3.2c-2.7-1.5-5.3-3.1-7.7-5c-3.1-2.4-6-5.1-8.6-8.1c2.8,2.2,5.8,4.3,8.8,6.1
			c2.8,1.7,5.7,3.1,8.7,4.3c2.1,0.9,4.3,1.6,6.4,2.1c1,0.3,2,0.4,3.1,0.6c1.4,0.2,2.8,0.4,4.1,0.3c0.2,0,0.4,0,0.6,0
			c1.5-0.1,3.1-0.3,4.7-0.7l2.5-0.6c0.4-0.1,0.8-0.2,1.4-0.3c0.5-0.1,1.1-0.2,1.6-0.2c2.1-0.1,4.1,0.2,5.9,0.7
			c3.7,1.1,6.9,2.8,10,4.6c0.7,0.4,1.4,0.8,2.1,1.3c0.8,0.5,1.6,1,2.3,1.5c0.6,0.4,1.3,0.8,1.9,1.3c0.8,0.5,1.6,1.1,2.4,1.6
			c0.1,0,0.1,0.1,0.2,0.1c1.4,1,2.8,2,4.2,3c0.2,0.2,0.4,0.3,0.6,0.5c1.1,0.9,2.3,1.7,3.4,2.6c2.8,2.2,5.3,4.4,7.9,6
			c1.3,0.8,2.6,1.4,4,1.9c0.7,0.2,1.3,0.3,2.1,0.4c0.8,0.1,1.5,0.2,2.3,0.2c3.1,0.2,6.2-0.3,9.3-1.2c0.8-0.2,1.5-0.5,2.3-0.8
			c0.7-0.3,1.5-0.6,2.2-0.9c1.5-0.6,2.9-1.4,4.3-2.3c2.8-1.7,5.4-3.7,8-5.9c1.3-1.1,2.5-2.2,3.7-3.4c0.6-0.6,1.2-1.2,1.8-1.8
			c1.4-1.5,2-3.6,1.5-5.6c-0.4-1.4-1.7-2.6-2.6-3.7c-2.1-2.8-4-5.8-5.4-8.9c2,2.8,4.2,5.4,6.6,7.8c0.8,0.8,1.5,0.9,2.4,1.3
			c0.7,0.3,1.2,1.1,1.5,1.8C194.9,187,195.2,188.4,195.2,189.7z"/>
		<path d="M146.6,148.8c0,0-3.6,43.6,18.5,49.2c2.7,0.5,5.7,0.3,8.4-0.4c4.3-1.1,12-5.3,11.5-10.6c-0.4-4-3.2-6.1-5.1-9.2
			c-2.2-3.5-3-7.7-2.7-11.8l-1.4-3.7L146.6,148.8z"/>
		<path class="st8" d="M156.7,166.8c0,0,2.8,0.3,3.2,0.4c2.6,0.5,5.2,1.4,7.5,2.6c3.1,1.7,5.9,4,8.1,6.8c2.5,3.1,6.5,9.1,3.4,13.1
			c-2.3,2.9-6.5,4.1-10,3.9c-1.7-0.1-3.4-0.5-4.9-1.1c0,0-10.1-3.2-12.8-20.4c0,0,5.3,0.3,11.2,6.5
			C161.3,173.8,159.4,169.8,156.7,166.8z"/>
	</g>
	<path d="M123,236.5c-47.7,0-90.7-33.1-101.3-81.5c-7.1-32.4,1.9-66.6,24-91.3l3.7,3.3c-21.1,23.6-29.6,56.1-22.8,86.9
		c11.7,53.2,64.4,86.9,117.5,75.3c25.8-5.6,47.8-21,62-43.2c14.2-22.2,19-48.6,13.3-74.4c-11.6-53.2-64.4-86.9-117.5-75.3
		c-4.3,0.9-8.5,2.2-12.5,3.6l-1.7-4.7c4.3-1.5,8.7-2.8,13.2-3.8c55.9-12.2,111.3,23.3,123.5,79.1c5.9,27.1,1,54.8-14,78.1
		s-38.1,39.4-65.1,45.4C137.8,235.7,130.4,236.5,123,236.5z"/>
</g>
</svg>
