<?xml version="1.0" encoding="utf-8"?>
<!-- Generator: Adobe Illustrator 24.0.0, SVG Export Plug-In . SVG Version: 6.00 Build 0)  -->
<svg version="1.1" id="Layer_1" xmlns="http://www.w3.org/2000/svg" xmlns:xlink="http://www.w3.org/1999/xlink" x="0px" y="0px"
	 viewBox="0 0 600 226" style="enable-background:new 0 0 600 226;" xml:space="preserve">
<style type="text/css">
	.st0{display:none;stroke:#000000;stroke-width:9;stroke-linejoin:round;stroke-miterlimit:10;}
	.st1{display:none;stroke:#000000;stroke-width:8;stroke-linejoin:round;stroke-miterlimit:10;}
	.st2{display:none;}
	.st3{display:inline;}
	.st4{display:inline;fill:#B06548;}
	.st5{display:inline;fill:none;stroke:#16211F;stroke-miterlimit:10;}
	.st6{display:none;fill:none;stroke:#000000;stroke-miterlimit:10;}
	.st7{fill:#FC0D46;}
	.st8{fill:#FFFFFF;}
	.st9{fill:#F5C000;}
	.st10{fill:#4F4F4F;}
	.st11{fill:#FFE180;}
	.st12{fill:#9B9B9B;}
	.st13{fill:none;}
	.st14{fill:#D19F00;}
</style>
<path class="st0" d="M308-94.8c-2.8-1-5.9-1.1-8.8-2c-2.4-0.8-5.1-1.7-7.3-3.2c-1.8-1.3-3.4-2.9-5.2-4.2c-3.3-2.5-6.9-5-10.9-6.1
	c-0.8-0.2-1.5-0.4-2.3-0.5c0,0,0-0.1-0.1-0.1c-0.1,0-0.2-0.1-0.2-0.1l-0.2,0.2c-1.2-0.2-2.4-0.3-3.7-0.2c-2.1,0.1-4,0.7-6.1,0.9
	c-0.1,0-0.1,0.2,0,0.2c0.2,0,0.4,0,0.6,0c-2.7,0.6-5.1,1.3-7.2,2.2l0,0c0,0,0.3-0.4,0.3-0.4c-0.1,0.2-0.3,0.3-0.4,0.4
	c-2.6,1.1-4.6,2.3-6.2,3.5c0,0,0,0,0,0c0.2-0.7-1.2,0.8-1.6,1.3c0,0-0.1,0.1-0.1,0.1c0,0,0,0,0,0c-0.2,0.1-0.3,0.2-0.3,0.3
	c-0.3,0.2-0.5,0.5-0.7,0.7l-0.2-0.2c-1.9,1.6-2.8,3.6-3.5,6.1c-1.7,6.6-0.9,13.6-2.7,20.2c-0.4,1.7-1.1,3.2-1.8,4.8
	c-0.6,1.3-1.3,2.7-1.5,4.1c-0.2,1.8,0.5,3.9,2.4,4.5c4.3,1.4,6.5-2.8,7.1-6.7c0.1-0.4,0.1-0.8,0.1-1.2c0,0,0,0.1,0,0.1
	c1.3,3.7,3.8,11.7,8.8,11.4c0.6,0.9,1.5,1.5,2.6,1.6c5.2,0.6,5-6.1,4.5-9.8c-0.3-2.4-0.7-4.9-0.6-7.2c0.1-2.2,0.7-4.3,1.3-6.4
	c0.5-1.9,1.2-3.6,1.9-5.4c0.4-1,0.9-3.4,2.1-3.8c-0.6,3-0.5,6.4-0.3,9.4c0.3,3.6,1.8,7.2,3,10.5c0.9,2.5,1.8,5.2,4,6.9
	c1.9,1.5,5.3,2,7.3,0.6c4.7-3.1,0.7-10.3-1.3-13.9c-1-1.9-1.5-3.7-2-5.7c-0.5-1.8-1.1-3.6-1.1-5.4c0-1.6,0.3-3.1,1-4.4
	c2.4-0.7,4.8-1.5,7.3-1c2.5,0.5,4.4,1.9,6.5,3.4c3,2.1,6.9,4.6,10.7,4.1c2.8-0.3,6.5-1.8,7.4-5C311.2-92.6,310-94.1,308-94.8z"/>
<path class="st1" d="M611.6,12.1c-4.2-1.7-6.6,2.4-7.5,6.2c-0.1,0.4-0.2,0.8-0.2,1.2c0,0,0-0.1,0-0.1c-1.1-3.8-3-11.9-8-11.9
	c-0.6-0.9-1.4-1.6-2.5-1.8c-5.2-1-5.4,5.8-5.2,9.4c0.1,2.4,0.4,4.9,0.1,7.3c-0.2,2.2-1,4.2-1.7,6.3c-0.6,1.8-1.5,3.5-2.3,5.3
	c-0.5,1-1.1,3.3-2.3,3.7c0.8-3,1-6.3,0.9-9.3c-0.1-3.6-1.3-7.3-2.3-10.7c-0.8-2.5-1.5-5.3-3.5-7.1c-1.8-1.6-5.1-2.3-7.3-1.1
	c-4.9,2.8-1.4,10.2,0.3,13.9c0.9,1.9,1.2,3.8,1.6,5.9c0.4,1.8,0.9,3.7,0.7,5.5c-0.1,1.5-0.5,3-1.3,4.3c-2.4,0.6-4.9,1.2-7.4,0.5
	c-2.5-0.7-4.3-2.2-6.3-3.8c-2.8-2.3-6.6-5-10.4-4.9c-2.9,0.1-6.6,1.4-7.7,4.4c-0.8,2.2,0.3,3.7,2.3,4.6c2.8,1.2,5.8,1.5,8.6,2.6
	c2.4,1,5,2.1,7,3.7c1.7,1.4,3.2,3.1,4.9,4.6c3.2,2.7,6.5,5.5,10.5,6.9c0.7,0.3,1.5,0.5,2.2,0.7c0,0,0,0.1,0.1,0.1
	c0.1,0,0.2,0.1,0.2,0.2l0.2-0.2c1.2,0.3,2.4,0.4,3.7,0.5c2.1,0.1,4.1-0.5,6.2-0.5c0.1,0,0.1-0.2,0-0.2c-0.2,0-0.4,0-0.6-0.1
	c2.8-0.4,5.2-1,7.3-1.7l0,0c0,0-0.3,0.4-0.3,0.4c0.1-0.2,0.3-0.3,0.4-0.4c2.6-0.9,4.8-2,6.5-3.1c0,0,0,0,0,0
	c-0.2,0.7,1.2-0.8,1.7-1.2c0,0,0.1-0.1,0.1-0.1c0,0,0,0,0,0c0.2-0.1,0.3-0.2,0.4-0.3c0.3-0.2,0.5-0.4,0.8-0.6l0.2,0.3
	c2-1.5,3.1-3.4,3.9-5.8c2.1-6.5,1.9-13.5,4-19.9c0.5-1.6,1.3-3.2,2.1-4.7c0.6-1.2,1.5-2.6,1.7-4C614,14.9,613.4,12.8,611.6,12.1z"/>
<g class="st2">
	<path class="st3" d="M613.7,16.7c0.3-1.8-0.3-3.9-2.1-4.7c-4.2-1.7-6.6,2.4-7.5,6.2l0.6,0.1c0.4-1.8,1.1-3.6,2.4-4.6
		c1-0.9,2.7-1.6,4-1.1c2.3,0.9,2.3,3.5,1.3,5.4c-2.4,4.5-4.3,8.9-5.1,14c-0.8,5.1-0.9,10.8-3.1,15.5c-0.6,1.3-1.5,2.3-2.5,3.1
		l0.3,0.5c2-1.5,3.1-3.4,3.9-5.8c2.1-6.5,1.9-13.5,4-19.9c0.5-1.6,1.3-3.2,2.1-4.7C612.6,19.5,613.4,18.2,613.7,16.7z"/>
	<path class="st4" d="M579.3,58.7c2.1,0.1,4.1-0.5,6.2-0.5c0.1,0-2.3,0-2.4,0c-2.1-0.3-1.8-0.1-3.9-0.3c-2.1-0.2-4.2-0.5-6.2-1.3
		c-3.8-1.5-7.5-4.2-10.5-7c-2.8-2.7-5.3-5.1-8.9-6.8c-2.8-1.4-5.6-2.2-8.6-2.8c-1.3-0.3-2.8-0.6-3.9-1.4c-1.8-1.3-1.4-3.4,0.1-4.8
		c3.2-3.2,7.9-3,11.7-0.9c3.3,1.8,5.9,4.8,9.2,6.4c2.5,1.3,5.6,1.2,8.3,0.6c-0.1,0.1-0.2,0.3-0.4,0.4c-1.2,1.1-2.5,1.6-3.9,2.4
		c0.2,0,0.4-0.1,0.7-0.1c0.4-0.1,0.8-0.2,1.2-0.3c1.6-0.6,3.1-1.7,4.1-3c0.1-0.2,0.3-0.3,0.4-0.5c1.3-2.6,1.1-5.1,0.4-7.9
		c-0.7-2.9-1.1-5.8-2.3-8.6c-1.2-2.6-2.2-5.4-2-8.3c0.1-1.3,0.4-2.8,1.6-3.4c1.6-0.9,3.8-0.8,5.3,0.1c2.7,1.6,3.2,4.6,4.2,7.5
		c0.3,0.9,0.6,1.9,0.9,2.9c0.1,0,0.1,0,0.2,0.1c0,0.3,0.1,0.6,0.1,0.9c0.5,1.7,0.9,3.6,0.9,5.3c0.2,1,0.3,1.9,0.4,2.9
		c0.1,1.9,0.2,4.4-0.6,6.3c0,0.3,0,0.6-0.1,0.8c-0.1,0.5-0.2,1-0.2,1.5c0.1,0,0.1-0.1,0.1-0.1c0.1-0.3,0.2-0.7,0.3-1
		c0,0,0.1,0,0.1,0c1.4-0.1,2.2-2.5,2.8-3.6c1.6-3,3.1-6.3,3.8-9.7c0.7-3.3,0.4-6.7,0.4-10.1c0-2.2,0-5.5,1.8-7
		c2.7-2.4,4.7,1.2,5.1,3.5c0.4,2.2,0.5,4.3,0.6,6.5c0.2,4,0.3,7.4-1.1,11.2c-1.2,3.1-2.8,6.2-3.5,9.5c0,0.1,0,0.1,0,0.2
		c0.8-2.3,2.1-4.5,3-6.7c0.8-1.8,1.6-3.6,2-5.6c0.4-1.9,0.5-3.8,0.6-5.7c0,0,0-0.1,0-0.1c0-1.1-0.1-2.2-0.2-3.4
		c-0.1-2.1,0-5.9-1.1-8.6c2.7,0.4,4.3,4.7,5,6.9c0.9,2.6,1.8,5.3,2.3,8.1c0.5,2.8,0.1,5.7-0.4,8.5c-0.4,2.2-1,4.2-0.9,6.5
		c0,0.1,0.2,0.1,0.2,0c0.1-1.8,0.6-3.4,1-5.1c0.5-1.7,0.7-3.4,1.1-5.2c0.4-2.4,0.2-4.8-0.4-7.2c0,0,0.1-0.1,0.1-0.2
		c0.1-0.7,0.2-1.5,0.4-2.3c0.4-1.8,1.1-3.6,2.4-4.6c1-0.9,2.7-1.6,4-1.1c2.3,0.9,2.3,3.5,1.3,5.4c-2.4,4.5-4.3,8.9-5.1,14
		c-0.8,5.1-0.9,10.8-3.1,15.5c-0.6,1.3-1.5,2.3-2.5,3.1c-0.6,0.5-0.3,0.8-1,1.2c-0.1,0-2.1,2.1-1.9,1.3c-2.5,1.4-5.1,1.4-6.9,3.5
		c0,0,0.2-0.3,0.3-0.4 M588.1,43.7c-0.2,0-0.2,0.3,0,0.4c1.5,0.2,2.9-0.3,4.2-0.9c0.3-0.1,0-0.5-0.3-0.4
		C590.7,43.3,589.6,43.9,588.1,43.7z M577.7,45.7c-0.6-0.1-1.3-0.3-1.8,0.1c-0.1,0.1,0,0.3,0.1,0.3c0.8-0.3,1.7,0.5,2.5,0.4
		c0.9-0.1,1.7-0.4,2.5-1c0.3-0.2,0-0.7-0.3-0.6C579.7,45.3,578.9,45.9,577.7,45.7z"/>
	<path class="st3" d="M604.6,18.4l-0.6-0.1c-0.1,0.4-0.2,0.8-0.2,1.2c0,0,0-0.1,0-0.1c-1.1-3.8-3-11.9-8-11.9
		c-0.6-0.9-1.4-1.6-2.5-1.8c-5.2-1-5.4,5.8-5.2,9.4c0.1,2.4,0.4,4.9,0.1,7.3c-0.2,2.2-1,4.2-1.7,6.3c-0.6,1.8-1.5,3.5-2.3,5.3
		c-0.5,1-1.1,3.3-2.3,3.7l0,0.2c1.4-0.1,2.2-2.5,2.8-3.6c1.6-3,3.1-6.3,3.8-9.7c0.7-3.3,0.4-6.7,0.4-10.1c0-2.2,0-5.5,1.8-7
		c2.7-2.4,4.7,1.2,5.1,3.5c0.4,2.2,0.5,4.3,0.6,6.5c0.2,4,0.3,7.4-1.1,11.2c-1.2,3.1-2.8,6.2-3.5,9.5c0,0.1,0,0.1,0,0.2
		c0.8-2.3,2.1-4.5,3-6.7c0.8-1.8,1.6-3.6,2-5.6c0.4-1.9,0.5-3.8,0.6-5.7c0,0,0-0.1,0-0.1c0-1.1-0.1-2.2-0.2-3.4
		c-0.1-2.1,0-5.9-1.1-8.6c2.7,0.4,4.3,4.7,5,6.9c0.9,2.6,1.8,5.3,2.3,8.1c0.5,2.8,0.1,5.7-0.4,8.5c-0.4,2.2-1,4.2-0.9,6.5
		c0,0.1,0.2,0.1,0.2,0c0.1-1.8,0.6-3.4,1-5.1c0.5-1.7,0.7-3.4,1.1-5.2c0.4-2.4,0.2-4.8-0.4-7.2c0,0,0.1-0.1,0.1-0.2
		C604.3,20,604.5,19.2,604.6,18.4z"/>
	<path class="st3" d="M592.4,43.1c0.3-0.1,0-0.5-0.3-0.4c-1.3,0.6-2.5,1.2-4,1c-0.2,0-0.2,0.3,0,0.4C589.6,44.3,591,43.8,592.4,43.1
		z"/>
	<path class="st3" d="M582.9,28.2c-0.1-3.6-1.3-7.3-2.3-10.7c-0.8-2.5-1.5-5.3-3.5-7.1c-1.8-1.6-5.1-2.3-7.3-1.1
		c-4.9,2.8-1.4,10.2,0.3,13.9c0.9,1.9,1.2,3.8,1.6,5.9c0.4,1.8,0.9,3.7,0.7,5.5c-0.1,1.5-0.5,3-1.3,4.3c-2.4,0.6-4.9,1.2-7.4,0.5
		c-2.5-0.7-4.3-2.2-6.3-3.8c-2.8-2.3-6.6-5-10.4-4.9c-2.9,0.1-6.6,1.4-7.7,4.4c-0.8,2.2,0.3,3.7,2.3,4.6c2.8,1.2,5.8,1.5,8.6,2.6
		c2.4,1,5,2.1,7,3.7c1.7,1.4,3.2,3.1,4.9,4.6c3.2,2.7,6.5,5.5,10.5,6.9c0.7,0.3,1.5,0.5,2.2,0.7c0,0,0,0.1,0.1,0.1
		c0.1,0,0.2,0.1,0.2,0.2l0.2-0.2c1.2,0.3,2.4,0.4,3.7,0.5c2.1,0.1,4.1-0.5,6.2-0.5c0.1,0,0.1-0.2,0-0.2c-2.1-0.3-4.1,0-6.2-0.1
		c-2.1-0.2-4.2-0.5-6.2-1.3c-3.8-1.5-7.5-4.2-10.5-7c-2.8-2.7-5.3-5.1-8.9-6.8c-2.8-1.4-5.6-2.2-8.6-2.8c-1.3-0.3-2.8-0.6-3.9-1.4
		c-1.8-1.3-1.4-3.4,0.1-4.8c3.2-3.2,7.9-3,11.7-0.9c3.3,1.8,5.9,4.8,9.2,6.4c2.5,1.3,5.6,1.2,8.3,0.6c-0.1,0.1-0.2,0.3-0.4,0.4
		c-1.2,1.1-2.5,1.6-3.9,2.4c0.2,0,0.4-0.1,0.7-0.1c0.4-0.1,0.8-0.2,1.2-0.3c1.6-0.6,3.1-1.7,4.1-3c0.1-0.2,0.3-0.3,0.4-0.5
		c1.3-2.6,1.1-5.1,0.4-7.9c-0.7-2.9-1.1-5.8-2.3-8.6c-1.2-2.6-2.2-5.4-2-8.3c0.1-1.3,0.4-2.8,1.6-3.4c1.6-0.9,3.8-0.8,5.3,0.1
		c2.7,1.6,3.2,4.6,4.2,7.5c0.3,0.9,0.6,1.9,0.9,2.9c0.1,0,0.1,0,0.2,0.1c0,0.3,0.1,0.6,0.1,0.9c0.5,1.7,0.9,3.6,0.9,5.3
		c0.2,1,0.3,1.9,0.4,2.9c0.1,1.9,0.2,4.4-0.6,6.3c0,0.3,0,0.6-0.1,0.8c-0.1,0.5-0.2,1-0.2,1.5c0.1,0,0.1-0.1,0.1-0.1
		c0.1-0.3,0.2-0.7,0.3-1c0,0,0.1,0,0.1,0l0-0.2C582.8,34.6,582.9,31.2,582.9,28.2z"/>
	<path class="st3" d="M581,45.5c0.3-0.2,0-0.7-0.3-0.6c-1.1,0.4-1.8,1-3.1,0.8c-0.6-0.1-1.3-0.3-1.8,0.1c-0.1,0.1,0,0.3,0.1,0.3
		c0.8-0.3,1.7,0.5,2.5,0.4C579.5,46.4,580.3,46,581,45.5z"/>
	<path class="st5" d="M604.1,48.6c0,0-7.1,9.6-24.9,9.8"/>
</g>
<g class="st2">
	<path class="st3" d="M237.9-67c-0.2,1.8,0.5,3.9,2.4,4.5c4.3,1.4,6.5-2.8,7.1-6.7l-0.6-0.1c-0.3,1.8-0.9,3.6-2,4.8
		c-0.9,0.9-2.6,1.8-3.9,1.3c-2.3-0.8-2.5-3.3-1.6-5.3c2.1-4.6,3.7-9.2,4.1-14.3c0.4-5.2,0.1-10.8,2-15.7c0.5-1.3,1.3-2.4,2.3-3.2
		l-0.4-0.5c-1.9,1.6-2.8,3.6-3.5,6.1c-1.7,6.6-0.9,13.6-2.7,20.2c-0.4,1.7-1.1,3.2-1.8,4.8C238.8-69.9,238-68.5,237.9-67z"/>
	<path class="st4" d="M269.3-111.3c-2.1,0.1-4,0.7-6.1,0.9c-0.1,0,2.3-0.1,2.4-0.1c2.1,0.2,1.8,0,3.9,0c2.1,0,4.3,0.2,6.3,0.9
		c3.9,1.3,7.8,3.6,11,6.3c3,2.5,5.7,4.7,9.3,6.2c2.9,1.2,5.7,1.8,8.8,2.2c1.3,0.2,2.8,0.4,4,1.1c1.9,1.2,1.6,3.3,0.2,4.8
		c-3,3.4-7.6,3.5-11.6,1.7c-3.4-1.6-6.2-4.4-9.6-5.8c-2.6-1.1-5.7-0.8-8.4-0.1c0.1-0.1,0.2-0.3,0.3-0.4c1.1-1.2,2.4-1.8,3.7-2.7
		c-0.2,0-0.4,0.1-0.7,0.2c-0.4,0.2-0.8,0.3-1.1,0.4c-1.6,0.7-3,1.9-3.9,3.3c-0.1,0.2-0.2,0.4-0.3,0.5c-1.1,2.6-0.7,5.2,0.1,7.9
		c0.9,2.9,1.5,5.8,2.9,8.4c1.3,2.5,2.6,5.2,2.6,8.1c0,1.3-0.2,2.8-1.3,3.5c-1.5,1-3.7,1-5.3,0.2c-2.8-1.4-3.5-4.4-4.7-7.2
		c-0.4-0.9-0.8-1.8-1.1-2.8c-0.1,0-0.1,0-0.2-0.1c-0.1-0.3-0.1-0.6-0.2-0.9c-0.6-1.7-1.1-3.5-1.3-5.2c-0.3-0.9-0.5-1.9-0.6-2.9
		c-0.2-1.9-0.5-4.4,0.1-6.3c0-0.3,0-0.6,0-0.8c0-0.5,0.1-1,0.1-1.5c-0.1,0-0.1,0.1-0.1,0.1c-0.1,0.3-0.2,0.7-0.3,1.1
		c0,0-0.1,0-0.1,0c-1.4,0.2-2,2.7-2.5,3.8c-1.4,3.1-2.6,6.5-3.2,10c-0.5,3.4,0.1,6.7,0.3,10.1c0.2,2.2,0.4,5.4-1.3,7.1
		c-2.5,2.5-4.7-0.8-5.3-3.2c-0.6-2.1-0.8-4.3-1.1-6.5c-0.5-3.9-0.8-7.4,0.3-11.2c1-3.2,2.4-6.4,2.9-9.7c0-0.1,0-0.1,0-0.2
		c-0.6,2.4-1.8,4.6-2.6,6.9c-0.7,1.9-1.3,3.7-1.6,5.7c-0.3,1.9-0.2,3.8-0.2,5.7c0,0,0,0.1,0,0.1c0.1,1.1,0.3,2.2,0.4,3.4
		c0.2,2.1,0.4,5.9,1.7,8.5c-2.8-0.3-4.6-4.4-5.5-6.6c-1.1-2.6-2.2-5.2-2.8-7.9c-0.6-2.8-0.5-5.7-0.1-8.5c0.3-2.2,0.8-4.3,0.4-6.5
		c0-0.1-0.2-0.1-0.2,0c0.1,1.8-0.3,3.4-0.7,5.1c-0.3,1.7-0.5,3.5-0.7,5.2c-0.3,2.5,0.1,4.8,0.9,7.1c0,0-0.1,0.1-0.1,0.2
		c0,0.7-0.1,1.5-0.2,2.3c-0.3,1.8-0.9,3.6-2,4.8c-0.9,0.9-2.6,1.8-3.9,1.3c-2.3-0.8-2.5-3.3-1.6-5.3c2.1-4.6,3.7-9.2,4.1-14.3
		c0.4-5.2,0.1-10.8,2-15.7c0.5-1.3,1.3-2.4,2.3-3.2c0.6-0.5,0.2-0.8,0.9-1.2c0.1,0,2-2.2,1.8-1.4c2.4-1.5,5-1.7,6.6-4
		c0,0-0.2,0.3-0.3,0.4 M261.6-95.7c0.2,0,0.1-0.3-0.1-0.4c-1.5-0.1-2.9,0.5-4.2,1.2c-0.3,0.1,0.1,0.5,0.3,0.4
		C258.9-95.1,260.1-95.8,261.6-95.7z M271.8-98.4c0.6,0.1,1.3,0.2,1.8-0.2c0.1-0.1,0-0.3-0.1-0.2c-0.8,0.4-1.7-0.4-2.6-0.2
		c-0.9,0.1-1.7,0.6-2.4,1.1c-0.3,0.2,0,0.7,0.3,0.5C269.8-97.9,270.5-98.5,271.8-98.4z"/>
	<path class="st3" d="M246.8-69.3l0.6,0.1c0.1-0.4,0.1-0.8,0.1-1.2c0,0,0,0.1,0,0.1c1.3,3.7,3.8,11.7,8.8,11.4
		c0.6,0.9,1.5,1.5,2.6,1.6c5.2,0.6,5-6.1,4.5-9.8c-0.3-2.4-0.7-4.9-0.6-7.2c0.1-2.2,0.7-4.3,1.3-6.4c0.5-1.9,1.2-3.6,1.9-5.4
		c0.4-1,0.9-3.4,2.1-3.8l0-0.2c-1.4,0.2-2,2.7-2.5,3.8c-1.4,3.1-2.6,6.5-3.2,10c-0.5,3.4,0.1,6.7,0.3,10.1c0.2,2.2,0.4,5.4-1.3,7.1
		c-2.5,2.5-4.7-0.8-5.3-3.2c-0.6-2.1-0.8-4.3-1.1-6.5c-0.5-3.9-0.8-7.4,0.3-11.2c1-3.2,2.4-6.4,2.9-9.7c0-0.1,0-0.1,0-0.2
		c-0.6,2.4-1.8,4.6-2.6,6.9c-0.7,1.9-1.3,3.7-1.6,5.7c-0.3,1.9-0.2,3.8-0.2,5.7c0,0,0,0.1,0,0.1c0.1,1.1,0.3,2.2,0.4,3.4
		c0.2,2.1,0.4,5.9,1.7,8.5c-2.8-0.3-4.6-4.4-5.5-6.6c-1.1-2.6-2.2-5.2-2.8-7.9c-0.6-2.8-0.5-5.7-0.1-8.5c0.3-2.2,0.8-4.3,0.4-6.5
		c0-0.1-0.2-0.1-0.2,0c0.1,1.8-0.3,3.4-0.7,5.1c-0.3,1.7-0.5,3.5-0.7,5.2c-0.3,2.5,0.1,4.8,0.9,7.1c0,0-0.1,0.1-0.1,0.2
		C246.9-70.9,246.9-70.1,246.8-69.3z"/>
	<path class="st3" d="M257.3-94.8c-0.3,0.1,0.1,0.5,0.3,0.4c1.3-0.7,2.4-1.3,3.9-1.3c0.2,0,0.1-0.3-0.1-0.4
		C260-96.2,258.6-95.6,257.3-94.8z"/>
	<path class="st3" d="M267.8-80.6c0.3,3.6,1.8,7.2,3,10.5c0.9,2.5,1.8,5.2,4,6.9c1.9,1.5,5.3,2,7.3,0.6c4.7-3.1,0.7-10.3-1.3-13.9
		c-1-1.9-1.5-3.7-2-5.7c-0.5-1.8-1.1-3.6-1.1-5.4c0-1.6,0.3-3.1,1-4.4c2.4-0.7,4.8-1.5,7.3-1c2.5,0.5,4.4,1.9,6.5,3.4
		c3,2.1,6.9,4.6,10.7,4.1c2.8-0.3,6.5-1.8,7.4-5c0.6-2.2-0.6-3.7-2.6-4.4c-2.8-1-5.9-1.1-8.8-2c-2.4-0.8-5.1-1.7-7.3-3.2
		c-1.8-1.3-3.4-2.9-5.2-4.2c-3.3-2.5-6.9-5-10.9-6.1c-0.8-0.2-1.5-0.4-2.3-0.5c0,0,0-0.1-0.1-0.1c-0.1,0-0.2-0.1-0.2-0.1l-0.2,0.2
		c-1.2-0.2-2.4-0.3-3.7-0.2c-2.1,0.1-4,0.7-6.1,0.9c-0.1,0-0.1,0.2,0,0.2c2.1,0.2,4.1-0.3,6.2-0.3c2.1,0,4.3,0.2,6.3,0.9
		c3.9,1.3,7.8,3.6,11,6.3c3,2.5,5.7,4.7,9.3,6.2c2.9,1.2,5.7,1.8,8.8,2.2c1.3,0.2,2.8,0.4,4,1.1c1.9,1.2,1.6,3.3,0.2,4.8
		c-3,3.4-7.6,3.5-11.6,1.7c-3.4-1.6-6.2-4.4-9.6-5.8c-2.6-1.1-5.7-0.8-8.4-0.1c0.1-0.1,0.2-0.3,0.3-0.4c1.1-1.2,2.4-1.8,3.7-2.7
		c-0.2,0-0.4,0.1-0.7,0.2c-0.4,0.2-0.8,0.3-1.1,0.4c-1.6,0.7-3,1.9-3.9,3.3c-0.1,0.2-0.2,0.4-0.3,0.5c-1.1,2.6-0.7,5.2,0.1,7.9
		c0.9,2.9,1.5,5.8,2.9,8.4c1.3,2.5,2.6,5.2,2.6,8.1c0,1.3-0.2,2.8-1.3,3.5c-1.5,1-3.7,1-5.3,0.2c-2.8-1.4-3.5-4.4-4.7-7.2
		c-0.4-0.9-0.8-1.8-1.1-2.8c-0.1,0-0.1,0-0.2-0.1c-0.1-0.3-0.1-0.6-0.2-0.9c-0.6-1.7-1.1-3.5-1.3-5.2c-0.3-0.9-0.5-1.9-0.6-2.9
		c-0.2-1.9-0.5-4.4,0.1-6.3c0-0.3,0-0.6,0-0.8c0-0.5,0.1-1,0.1-1.5c-0.1,0-0.1,0.1-0.1,0.1c-0.1,0.3-0.2,0.7-0.3,1.1
		c0,0-0.1,0-0.1,0l0,0.2C267.4-86.9,267.5-83.5,267.8-80.6z"/>
	<path class="st3" d="M268.5-97.9c-0.3,0.2,0,0.7,0.3,0.5c1.1-0.5,1.8-1.1,3-1c0.6,0.1,1.3,0.2,1.8-0.2c0.1-0.1,0-0.3-0.1-0.2
		c-0.8,0.4-1.7-0.4-2.6-0.2C270-98.9,269.2-98.5,268.5-97.9z"/>
	<path class="st5" d="M245.3-99.5c0,0,6.4-10.1,24.2-11.5"/>
</g>
<rect x="25" y="-162.3" class="st6" width="593.4" height="222.5"/>
<g>
	<path d="M189.2,225.6c-21.1,0-41.9-7.3-58.5-20.5c-16.9-13.4-28.7-32.4-33.3-53.5c-5.4-24.5-0.9-49.7,12.7-70.9
		c13.6-21.2,34.5-35.8,59.1-41.1c6.7-1.5,13.5-2.2,20.2-2.2c21.1,0,41.9,7.3,58.5,20.5c16.9,13.4,28.7,32.4,33.3,53.5
		c5.4,24.5,0.9,49.7-12.7,70.9c-13.6,21.2-34.5,35.8-59.1,41.1C202.7,224.9,195.9,225.6,189.2,225.6z M189.3,48.8
		c-5.9,0-11.9,0.7-17.8,1.9c-21.6,4.7-40,17.6-51.9,36.2c-11.9,18.6-15.9,40.7-11.1,62.3c8.3,37.7,42.2,65,80.7,65
		c5.9,0,11.9-0.7,17.8-1.9c21.6-4.7,40-17.6,51.9-36.2c11.9-18.6,15.9-40.7,11.1-62.3C261.8,76.2,227.8,48.8,189.3,48.8z"/>
	<polygon points="355,79.7 511.3,83.1 515.5,173.4 435.3,197.4 294,182.1 259.3,148.4 	"/>
	<g>
		<path d="M328.2,149.1h-10.7c-4.2,0-7.8-1.7-10.3-4.4c-2.5,2.8-6.1,4.4-10.3,4.4h-10.7c-7.9,0-13.8-5.9-13.8-13.8v-61
			c0-8,5.8-13.8,13.8-13.8h10.7c4.2,0,7.8,1.7,10.3,4.4c2.5-2.8,6.1-4.4,10.3-4.4h10.7c8,0,13.8,5.8,13.8,13.8v61
			C342,143.2,336,149.1,328.2,149.1z M322.1,130.8h1.6V78.9h-1.6v19.3c0,6-4.3,10.3-10.3,10.3h-9.1c-5.9,0-10.3-4.4-10.3-10.3V78.9
			h-1.6v51.9h1.6v-10.5c0-6,4.3-10.3,10.3-10.3h9.1c6.1,0,10.3,4.2,10.3,10.3V130.8z"/>
		<path d="M384,149.1h-10.7c-3.9,0-7.3-1.5-9.8-3.9c-2.4,2.4-5.9,3.9-9.9,3.9H343c-7.9,0-13.8-6.1-13.8-14.2V94.5
			c0-8.8,0-35.7,34.3-35.7s34.3,26.9,34.3,35.7v40.4C397.7,143,391.8,149.1,384,149.1z M377.8,130.8h1.6V94.5
			c0-12.8-2.4-17.4-15.9-17.4c-13.5,0-15.9,4.6-15.9,17.4v36.2h1.6V127c0-6,4.3-10.3,10.3-10.3h8.2c6.1,0,10.3,4.2,10.3,10.3V130.8z
			 M367.8,115.2h-8.4c-5.9,0-10.3-4.4-10.3-10.3V94.5c0-2.6,0-6.6,3-10.1c3.7-4.2,9.1-4.2,11.4-4.2s7.7,0,11.4,4.2
			c3,3.4,3,7.4,3,10.1v10.3c0,5.8-4,10.1-9.8,10.4L367.8,115.2z M363.2,98.2c0.1,0,0.1,0.1,0.2,0.1c0.1,0,0.1-0.1,0.2-0.1
			c-0.1,0-0.1-0.1-0.2-0.1C363.4,98.1,363.3,98.2,363.2,98.2z"/>
		<path d="M376.4,74.7h-1.2c-3.7,0-6.4-1.4-7.7-2.1c-0.1-0.1-0.2-0.1-0.4-0.2l-28.6-14.2c-5.6-2.8-8.4-8.5-7-14.2
			c1.4-5.7,6.7-9.8,13-9.8h4.7c3.5,0,6.7,1.1,9.5,3.4l24.5,13.4c5.1,2.9,7.6,8.5,6.2,14C387.9,70.8,382.6,74.7,376.4,74.7z"/>
		<path d="M427.6,149.1h-10.7c-7.9,0-13.8-5.9-13.8-13.8V98.7h-5.3c-7.9,0-13.8-5.9-13.8-13.8V74.3c0-7.9,5.9-13.8,13.8-13.8h48.8
			c8,0,13.8,5.8,13.8,13.8V85c0,7.9-5.9,13.8-13.8,13.8h-5.3v36.6C441.4,143.2,435.5,149.1,427.6,149.1z M421.5,130.8h1.6V90.7
			c0-6,4.3-10.3,10.3-10.3h8.8v-1.6h-39.7v1.6h8.8c6.1,0,10.3,4.2,10.3,10.3V130.8z"/>
		<path d="M468.6,149.1h-10.5c-7.9,0-13.8-5.9-13.8-13.8v-61c0-7.9,5.9-13.8,13.8-13.8h10.5c8,0,13.8,5.8,13.8,13.8v61
			C482.4,143.2,476.5,149.1,468.6,149.1z M462.7,130.8h1.4V78.9h-1.4V130.8z"/>
		<path d="M470,75.3c-3.8,0-7.3-1-9.8-1.7c-1.8,1-4,1.6-6.2,1.6c-1.5,0-3-0.3-4.4-0.8l-3-1c-3.6-1.2-6.4-3.7-7.7-7
			c-1.4-3.3-1.2-7,0.5-10.3c3.5-6.9,9.7-10.8,17.2-10.8c3.7,0,7.2,1,9.7,1.7c0,0,0.1,0,0.1,0c1.8-1,3.9-1.5,6.1-1.5
			c1.4,0,2.9,0.2,4.2,0.7l3.7,1.2c3.3,1.3,5.9,3.8,7.1,7c1.3,3.1,1.1,6.6-0.3,9.8l-0.2,0.3C483.7,71.4,477.6,75.3,470,75.3z"/>
		<path d="M528.9,149.1h-14c-4,0-7.6-1.5-10.3-4.2c-2.5,2.6-6,4.2-10,4.2h-10.7c-7.9,0-13.8-5.9-13.8-13.8v-61
			c0-7.9,5.9-13.8,13.8-13.8h14c4,0,7.6,1.5,10.3,4.2c2.5-2.6,6-4.2,10-4.2h10.7c8,0,13.8,5.8,13.8,13.8v61
			C542.6,143.2,536.7,149.1,528.9,149.1z M522.7,130.8h1.6V78.9h-1.6V130.8z M488.4,130.8h1.6V78.9h-1.6V130.8z"/>
		<path d="M586.1,149.1h-10.7c-4.2,0-7.8-1.7-10.3-4.4c-2.5,2.8-6.1,4.4-10.3,4.4h-10.7c-7.9,0-13.8-5.9-13.8-13.8v-61
			c0-8,5.8-13.8,13.8-13.8h10.7c4.2,0,7.8,1.7,10.3,4.4c2.5-2.8,6.1-4.4,10.3-4.4h10.7c8,0,13.8,5.8,13.8,13.8v61
			C599.8,143.2,593.9,149.1,586.1,149.1z M579.9,130.8h1.6V78.9h-1.6v19.3c0,6-4.3,10.3-10.3,10.3h-9.2c-5.9,0-10.3-4.4-10.3-10.3
			V78.9h-1.6v51.9h1.6v-10.5c0-6,4.3-10.3,10.3-10.3h9.2c6.1,0,10.3,4.2,10.3,10.3V130.8z"/>
		<path d="M301.3,217.4c-18.4,0-29.8-11.2-29.8-29.2v-18.8c0-18,11.4-29.2,29.8-29.2c20.8,0,29,13.9,29.7,26.8
			c0.3,4.9-2.1,9.4-6.1,11.8c4,2.4,6.4,6.9,6.1,11.9C330.2,206.9,318.5,217.4,301.3,217.4z"/>
		<path d="M332.6,172.2h-0.7c-5.9,0-10.8-3.9-12.1-9.5c-1.2-5.4,1.5-10.8,6.5-13.2l0.1,0l15-6.8c2.8-1.9,5.6-2.4,7.6-2.4h2.8
			c6,0,11,4,12.1,9.7c1.1,5.6-1.9,11-7.3,13.3l-17.7,7.3C338,171.1,335.7,172.2,332.6,172.2z M330.5,154.3l4.4,8.1l-4.3-8.1
			C330.6,154.3,330.6,154.3,330.5,154.3z"/>
		<path d="M339.7,217.4c-15.3,0-25.1-9.7-25.1-24.7v-14.2c0-15,9.9-24.7,25.1-24.7c15.3,0,25.1,9.7,25.1,24.7v14.2
			C364.8,207.7,355,217.4,339.7,217.4z"/>
		<path d="M387.1,217.4c-18.4,0-29.8-11.2-29.8-29.2v-18.8c0-18,11.4-29.2,29.8-29.2c20.7,0,28.9,13.7,29.7,26.5
			c0.1,2.1-0.2,4.2-1,6c0.7,1.6,1.1,3.5,1.1,5.4v10.2C416.9,206.2,405.5,217.4,387.1,217.4z"/>
		<path d="M424.9,172.6h-0.7c-3.3,0-5.6-1.2-6.6-1.8l-0.1-0.1l-16.7-8.3c-5.1-2.6-7.8-8-6.5-13.4c1.3-5.4,6.2-9.2,12-9.2h2.7
			c2.1,0,5.1,0.5,8,2.7l14,7.7c4.8,2.7,7.2,8.1,5.8,13.3C435.4,168.8,430.5,172.6,424.9,172.6z"/>
		<path d="M420.3,216.1h-6.1c-7.1,0-12.6-5.5-12.6-12.6v-35.7c0-7.1,5.5-12.6,12.6-12.6h6.1c7.2,0,12.6,5.4,12.6,12.6v35.7
			C432.9,210.5,427.4,216.1,420.3,216.1z"/>
		<path d="M441.9,216.1h-8.4c-7.5,0-13.2-5.7-13.2-13.2v-8.4c0-7.5,5.7-13.2,13.2-13.2h8.4c7.5,0,13.2,5.7,13.2,13.2v8.4
			C455,210.4,449.4,216.1,441.9,216.1z"/>
		<path d="M469.1,217.4c-18.4,0-29.8-11.2-29.8-29.2v-18.8c0-18,11.4-29.2,29.8-29.2c20.8,0,29,13.9,29.7,26.8
			c0.3,4.9-2.1,9.3-6.1,11.8c4,2.4,6.4,6.9,6.1,11.9C498.1,203.6,490,217.4,469.1,217.4z"/>
		<path d="M511.3,217.4c-18.4,0-29.8-11.2-29.8-29.2v-18.8c0-18,11.4-29.2,29.8-29.2c18.4,0,29.8,11.2,29.8,29.2v18.8
			C541.1,206.2,529.7,217.4,511.3,217.4z"/>
		<path d="M586.8,216.1h-8.4c-2.4,0-4.6-0.6-6.4-1.6c-1.9,1-4.1,1.6-6.4,1.6h-5c-2.3,0-4.5-0.6-6.4-1.6c-1.9,1-4.1,1.6-6.4,1.6h-8.4
			c-7.5,0-13.2-5.7-13.2-13.2v-48.2c0-7.5,5.7-13.2,13.2-13.2h3.3v-33.7l8.2,33.7h4.1c3.1,0,5.9,1,8.2,2.8c2.3-1.8,5.1-2.8,8.2-2.8
			h4.1l8.2-33.7v33.7h3.3c7.5,0,13.2,5.7,13.2,13.2v48.2C600,210.4,594.3,216.1,586.8,216.1z"/>
	</g>
	<g>
		<path class="st7" d="M286.2,136.4h10.7c2.8,0,4.6-1.8,4.6-4.6v-15.1c0-0.9,0.2-1.1,1.1-1.1h9.1c0.9,0,1.1,0.2,1.1,1.1v15.1
			c0,2.8,1.8,4.6,4.6,4.6h10.7c2.8,0,4.6-1.8,4.6-4.6v-61c0-2.9-1.7-4.6-4.6-4.6h-10.7c-2.8,0-4.6,1.9-4.6,4.6v23.8
			c0,0.9-0.2,1.1-1.1,1.1h-9.1c-0.8,0-1.1-0.3-1.1-1.1V70.8c0-2.8-1.9-4.6-4.6-4.6h-10.7c-2.9,0-4.6,1.7-4.6,4.6v61
			C281.6,134.6,283.5,136.4,286.2,136.4z"/>
		<path class="st7" d="M368.7,123.5v8.3c0,2.8,1.8,4.6,4.6,4.6H384c2.8,0,4.6-1.9,4.6-5V91c0-13.8-3-26.5-25.1-26.5
			c-22.1,0-25.1,12.8-25.1,26.5v40.4c0,3,1.8,5,4.6,5h10.7c2.9,0,4.6-1.7,4.6-4.6v-8.3c0-0.9,0.2-1.1,1.1-1.1h8.2
			C368.5,122.4,368.7,122.6,368.7,123.5z M358.2,91c0-4,0.2-5.1,5.2-5.1c5,0,5.2,1.1,5.2,5.1v10.3c0,0.9-0.1,1.2-1.1,1.2h-8.2
			c-0.8,0-1.1-0.3-1.1-1.1V91z"/>
		<path class="st7" d="M342.7,46.5l28.6,14.2c0.2,0.1,0.4,0.2,0.6,0.3c0.9,0.5,1.9,1,3.3,1h1.2c2,0,3.6-1.1,4.1-2.8
			c0.4-1.4-0.3-2.9-1.7-3.7l-25.3-13.9c-0.9-0.9-2.2-1.8-4.2-1.8h-4.7c-2.1,0-3.7,1.1-4.1,2.7C340.2,43.9,340.6,45.5,342.7,46.5z"/>
		<path class="st7" d="M451.3,81.5V70.8c0-2.9-1.7-4.6-4.6-4.6h-48.8c-2.8,0-4.6,1.8-4.6,4.6v10.7c0,2.8,1.9,4.6,4.6,4.6h13.3
			c0.9,0,1.1,0.2,1.1,1.1v44.6c0,2.8,1.8,4.6,4.6,4.6h10.7c2.8,0,4.6-1.8,4.6-4.6V87.2c0-0.9,0.2-1.1,1.1-1.1h13.3
			C449.5,86.1,451.3,84.3,451.3,81.5z"/>
		<path class="st7" d="M458.1,66.2c-2.8,0-4.6,1.8-4.6,4.6v61c0,2.8,1.9,4.6,4.6,4.6h10.5c2.8,0,4.6-1.8,4.6-4.6v-61
			c0-2.9-1.7-4.6-4.6-4.6H458.1z"/>
		<path class="st7" d="M449.7,61.2l3.1,1c0.4,0.2,0.8,0.3,1.2,0.3c1.3,0,2.5-0.7,3-1.7c0.1-0.2,0.3-0.5,1.2-0.5c1.1,0,2.8,0.5,4.5,1
			c2.3,0.6,4.8,1.4,7.4,1.4c4,0,7.1-1.9,9-5.8c0.5-1.1,0.4-2,0.1-2.6c-0.2-0.6-0.8-1.4-2-1.9l-3.3-1.1c-0.4-0.1-0.8-0.2-1.3-0.2
			c-1.2,0-2.3,0.6-2.9,1.5l-0.1,0.1c-0.1,0.2-0.3,0.5-1.3,0.5c-1.1,0-2.8-0.5-4.5-0.9c-2.2-0.6-4.8-1.3-7.3-1.3c-4,0-7.1,1.9-9,5.7
			c-0.6,1.2-0.4,2.1-0.2,2.7C447.7,60,448.3,60.8,449.7,61.2z"/>
		<path class="st7" d="M528.9,66.2h-10.7c-2.8,0-4.6,1.8-4.6,4.6v25l-10.8-26.4c-0.9-2.1-2.6-3.2-4.9-3.2h-14
			c-2.8,0-4.6,1.8-4.6,4.6v61c0,2.8,1.9,4.6,4.6,4.6h10.7c2.8,0,4.6-1.8,4.6-4.6v-25l10.8,26.3c0.9,2.2,2.6,3.2,4.9,3.2h14
			c2.8,0,4.6-1.8,4.6-4.6v-61C533.5,67.9,531.7,66.2,528.9,66.2z"/>
		<path class="st7" d="M544.1,136.4h10.7c2.8,0,4.6-1.8,4.6-4.6v-15.1c0-0.9,0.2-1.1,1.1-1.1h9.2c0.9,0,1.1,0.2,1.1,1.1v15.1
			c0,2.8,1.9,4.6,4.6,4.6h10.7c2.8,0,4.6-1.8,4.6-4.6v-61c0-2.9-1.7-4.6-4.6-4.6h-10.7c-2.8,0-4.6,1.9-4.6,4.6v23.8
			c0,0.9-0.2,1.1-1.1,1.1h-9.2c-0.8,0-1.1-0.3-1.1-1.1V70.8c0-2.8-1.9-4.6-4.6-4.6h-10.7c-2.9,0-4.6,1.7-4.6,4.6v61
			C539.5,134.6,541.3,136.4,544.1,136.4z"/>
		<path class="st8" d="M301.3,162.3c2.8,0,3.7,0.9,4.1,3.8c0.3,2.3,2.1,3.9,4.2,3.9c0.3,0,0.6,0,0.9-0.1l8.3-1.9
			c1.9-0.4,3.2-2,3-3.9c-0.4-6.8-3.5-18.2-20.6-18.2c-13.3,0-20.6,7.1-20.6,20v18.8c0,12.9,7.3,20,20.6,20c12.5,0,20-6.6,20.6-18.1
			c0.1-2-1.1-3.6-3-4l-8.5-1.9c-0.4-0.1-0.7-0.1-1.1-0.1c-2.1,0-3.7,1.5-4,3.8c-0.4,3.1-1.2,3.9-4,3.9c-3.5,0-4.2-1.2-4.2-7.6v-10.8
			C297.1,163.5,297.8,162.3,301.3,162.3z"/>
		<path class="st8" d="M328.7,157.3c0.3,1.3,1.6,2.3,3.1,2.3h0.7c1,0,1.7-0.4,2.2-0.7c0.1-0.1,0.2-0.1,0.3-0.2l18.1-7.5
			c1.5-0.6,2-2,1.8-3c-0.3-1.3-1.6-2.3-3.2-2.3H349c-1.4,0-2.2,0.6-2.9,1.1l-16,7.3C329,154.9,328.5,156.1,328.7,157.3z"/>
		<path class="st8" d="M339.7,159.6c-10.1,0-16,5.7-16,15.5v14.2c0,9.9,5.8,15.5,16,15.5c10.1,0,16-5.7,16-15.5v-14.2
			C355.7,165.2,349.8,159.6,339.7,159.6z M337,178.1c0-4.8,0.5-5.3,2.7-5.3c2.2,0,2.7,0.5,2.7,5.3v8.2c0,4.8-0.5,5.3-2.7,5.3
			c-2.2,0-2.7-0.5-2.7-5.3V178.1z"/>
		<path class="st8" d="M403.7,173.3h-15.1c-2.4,0-4,1.6-4,4v3.3c0,2.4,1.6,4,4,4h2.6c-0.2,2.8-1.1,3.7-4.2,3.7
			c-3.5,0-4.2-1.2-4.2-7.6v-10.8c0-6.4,0.7-7.6,4.2-7.6c2.9,0,3.9,0.9,4.1,4.1c0.3,2.7,2,3.6,3.6,3.6c0.3,0,0.6,0,1-0.1l8.5-1.9
			c2.2-0.5,3.4-2.1,3.3-4.3c-0.4-6.7-3.7-17.9-20.6-17.9c-13.3,0-20.6,7.1-20.6,20v18.8c0,12.9,7.3,20,20.6,20
			c13.3,0,20.6-7.1,20.6-20v-7.4C407.7,174.8,406.2,173.3,403.7,173.3z"/>
		<path class="st8" d="M426.6,154.8l-14.8-8.1c-0.6-0.6-1.5-1.2-2.9-1.2h-2.7c-1.6,0-2.8,0.9-3.1,2.1c-0.2,0.9,0.1,2.3,1.7,3.1
			l16.7,8.3c0.1,0.1,0.2,0.1,0.3,0.2c0.6,0.3,1.3,0.7,2.3,0.7h0.7c1.5,0,2.7-0.9,3.1-2.2C428.2,156.6,427.7,155.4,426.6,154.8z"/>
		<path class="st8" d="M420.3,160.9h-6.1c-2,0-3.4,1.4-3.4,3.4V200c0,2,1.4,3.4,3.4,3.4h6.1c2,0,3.4-1.4,3.4-3.4v-35.7
			C423.8,162.2,422.4,160.9,420.3,160.9z"/>
		<g>
			<g>
				<g>
					<path class="st9" d="M441.9,187h-8.4c-2.4,0-4,1.6-4,4v8.4c0,2.4,1.6,4,4,4h8.4c2.4,0,4-1.6,4-4V191
						C445.9,188.5,444.3,187,441.9,187z"/>
				</g>
				<g>
					<path class="st9" d="M469.1,162.3c2.8,0,3.7,0.9,4.1,3.8c0.3,2.3,2.1,3.9,4.2,3.9c0.3,0,0.6,0,0.9-0.1l8.3-1.9
						c1.9-0.4,3.2-2,3-3.9c-0.4-6.8-3.5-18.2-20.6-18.2c-13.3,0-20.6,7.1-20.6,20v18.8c0,12.9,7.3,20,20.6,20
						c17.1,0,20.2-11.4,20.6-18.1c0.1-2-1.1-3.6-3-4l-8.5-1.9c-0.4-0.1-0.7-0.1-1.1-0.1c-2.1,0-3.7,1.5-4,3.8
						c-0.4,3.1-1.2,3.9-4,3.9c-3.5,0-4.2-1.2-4.2-7.6v-10.8C464.9,163.5,465.6,162.3,469.1,162.3z"/>
				</g>
				<g>
					<g>
						<path class="st9" d="M511.3,145.9c-13.3,0-20.6,7.1-20.6,20v18.8c0,12.9,7.3,20,20.6,20c13.3,0,20.6-7.1,20.6-20v-18.8
							C531.9,153,524.6,145.9,511.3,145.9z M507.1,169.9c0-6.4,0.7-7.6,4.2-7.6c3.5,0,4.2,1.2,4.2,7.6v10.8c0,6.4-0.7,7.6-4.2,7.6
							c-3.5,0-4.2-1.2-4.2-7.6V169.9z"/>
					</g>
				</g>
				<g>
					<path class="st9" d="M586.8,147.2h-15.6c-2.1,0-3.6,1.2-4.1,3.4l-4.1,16.8l-4.1-16.8c-0.5-2.1-2-3.4-4.1-3.4h-15.6
						c-2.5,0-4,1.5-4,4v48.2c0,2.4,1.6,4,4,4h8.4c2.4,0,4-1.6,4-4v-18.6l4.7,19.3c0.5,2.1,2,3.3,4.2,3.3h5c2.1,0,3.7-1.2,4.2-3.3
						l4.7-19.3v18.6c0,2.4,1.6,4,4,4h8.4c2.4,0,4-1.6,4-4v-48.2C590.8,148.7,589.3,147.2,586.8,147.2z"/>
				</g>
			</g>
		</g>
	</g>
	<path d="M277.7,112.2C267,63.4,218.7,32.4,169.9,43.1c-3.7,0.8-7.4,1.9-11,3.2c-1.1-0.5-2.2-1.1-3.4-1.7c-0.2-0.4-0.3-0.8-0.5-1.2
		l-0.1-0.2l-0.1-0.1l-0.1-0.2c-0.2-0.2-0.3-0.5-0.5-0.7c-0.2-0.3-0.3-0.3-0.4-0.4l-0.1-0.1l0,0l0,0c0.1,0-0.5-0.4-0.3-0.2
		c-0.2-0.1-0.4-0.3-0.7-0.4c-0.5-0.2-1-0.2-1.5-0.2c-0.2,0-0.4,0.1-0.6,0.1c-0.2,0-0.3,0.1-0.5,0.2c-0.4,0.2-0.7,0.3-0.9,0.5
		C126.3,30.6,91.4,16,42.6,0.4c-0.9-0.3-1.9,0.2-2.2,1.1c-0.3,0.9,0.1,1.9,1,2.3c0.3,0.1,26.4,11.3,71.7,37.5
		c-28-11-66.7-23.9-110.9-32c-0.9-0.2-1.8,0.4-2,1.3c-0.2,0.9,0.2,1.8,1.1,2.1c0.8,0.3,73.5,27.6,119.3,60
		c-18.3,21.5-25.7,50.6-19.6,78.2c5.2,23.6,19.2,43.8,39.6,56.9c14.8,9.5,31.6,14.3,48.7,14.3c6.5,0,13.1-0.7,19.6-2.1
		c23.6-5.2,43.8-19.2,56.9-39.6C278.6,160,282.9,135.8,277.7,112.2z"/>
	<path class="st9" d="M214.2,77.8c-0.6-0.5-1.2-1-1.8-1.5c2.4-2.7,7-8,7.4-9.3c0.5-1.7-8.4,0.4-8.4,0.4s11.4-5.1,11.9-8.1
		c0.5-3-7.7-0.2-10.7,1.8c-2.3,1.5-6.7,6.1-8.9,8.3c-1.3-0.9-2.5-1.8-3.6-2.6c3-2.3,8.3-6.1,11.6-8c4.1-2.3,13.5-4.6,15.7-2.8
		c0.1,0.1,0.5,0.4,0.1,1.6c-1.6,6.2-8.2,17.2-11.1,21.9C215.6,79,214.8,78.3,214.2,77.8z"/>
	<path class="st7" d="M170.8,47.4c17.5-3.8,34.9-2,50.3,4.1c-4.6,0.7-9.4,2.5-11.6,3.7c-4.1,2.3-10.7,7.2-13.4,9.2
		c-5-3.2-8.2-4.6-10.3-5.2c-0.9-0.2-2-0.4-3.4,0.1c-3-1.9-8.9-5.4-18.1-10.2C166.5,48.4,168.6,47.8,170.8,47.4z"/>
	<path d="M174.7,66.8c-0.8-0.6-1.6-1.1-2.5-1.7c-0.4-0.3-0.8-0.5-1.3-0.8c-0.5-0.3-0.9-0.5-1.6-0.8c-0.1,0-0.2-0.1-0.3-0.1
		c-0.2,0-0.3-0.1-0.5-0.1l-0.5,0c-0.2,0-0.4,0-0.7,0c-0.3,0-0.4,0.1-0.6,0.1c-0.7,0.2-1.3,0.4-1.8,0.7c-0.3,0.1-0.5,0.3-0.7,0.4
		c-1-0.5-2.6-1.4-4.7-2.5c-0.3-1.6-0.6-3.3-0.9-4.9c-0.4-2.3-0.9-4.5-1.5-6.8c-0.1-0.4-0.2-0.7-0.3-1.1c10.8,5.5,18,9.6,22,12.1
		C177.6,62.5,176.2,64.3,174.7,66.8z"/>
	<path class="st8" d="M168,67.7C168,67.7,168,67.7,168,67.7C167.9,67.6,168,67.7,168,67.7C168,67.7,168,67.7,168,67.7z"/>
	<path d="M160.6,67.6c-0.1,0.1-0.1,0.1-0.2,0.2c-0.1-0.4-0.1-0.9-0.2-1.3c0.4,0.2,0.7,0.4,1,0.5C161,67.2,160.8,67.4,160.6,67.6z"/>
	<path d="M67.8,12.5c34.5,11.9,60.4,22.9,78.8,31.7c-0.1,0.2-0.3,0.4-0.4,0.6c-1.4,2-2.6,4-3.8,6.1c-0.4,0.8-0.8,1.6-1.3,2.4
		c-1.2-0.5-2.4-1.1-3.6-1.7C107.7,33.5,84,20.8,67.8,12.5z"/>
	<path d="M139.5,56.3c-1.1,2.3-2.2,4.6-3.3,6.9c-1.9,4.2-3.7,8.4-5.3,12.8C98.8,50.9,47.6,27.9,20.6,16.6
		C73.3,28.2,116.2,45.7,139.5,56.3z"/>
	<path class="st7" d="M124,75.3c2,1.5,3.9,2.9,5.7,4.4c-0.1,0.3-0.1,0.6-0.2,0.8l-0.1,0.9l-0.1,0.9l-0.1,0.9c-0.1,2.5,0,4.9,0.3,7.2
		c0.3,2.3,0.7,4.7,1.2,6.9c0.5,2.1,1,4.2,1.6,6.3c-0.5,1.6-0.9,3.2-1.4,4.9c-0.5,1.8-0.9,3.6-1.4,5.4c-0.4,1.8-0.8,3.6-1.2,5.4
		c-0.4,1.8-0.8,3.6-1.1,5.5c-0.3,1.8-0.7,3.7-1,5.5c-0.3,1.8-0.6,3.7-0.9,5.5l-0.8,5.5L124,147c-0.2,1.8-0.4,3.7-0.6,5.5
		c-0.2,1.9-0.4,3.7-0.5,5.6l-0.4,5.6c-0.1,1.9-0.2,3.7-0.2,5.6c0,1.9-0.1,3.7-0.1,5.6c0,1.9,0.1,3.7,0.1,5.6c0,1.9,0.2,3.7,0.5,5.5
		c0.1,0.3,0.1,0.7,0.2,1.1c-8.9-10.5-15.1-23.1-18.1-37C99.3,123.6,106.3,95.8,124,75.3z"/>
	<path class="st9" d="M247.6,179.4c0,0.1,0,0.1,0.1,0.1c0,0,0,0-0.1,0.1c-0.2,0.2-0.8,0.7-1.4,1.1c-1.4,0.8-3.1,1.4-4.9,2
		c-3.6,1.2-7.4,2.3-11.4,2.7c-4,0.5-8.2,0.3-12.3-0.6c-4.1-0.9-8.1-2.6-11.8-4.8c-2.6-1.5-5.1-3.3-7.5-5.3c0,0-0.1,0-0.1-0.1
		c-0.1-0.1-0.3-0.2-0.4-0.3c-0.8-0.7-1.7-1.4-2.5-2.1c-3.3-2.9-6.3-6-9.6-8.9c-1.6-1.4-3.3-2.8-5.2-4.1c-1-0.6-2-1.1-3.2-1.5
		c-0.6-0.2-1.2-0.3-1.9-0.4c-0.6-0.1-1.6,0-1.9,0l-0.7,0.1c-0.2,0-0.4,0.1-0.6,0.1c-0.4,0-0.8,0.1-1.3,0.1c-0.4,0-0.8,0-1.3,0
		c-0.4,0-0.8-0.1-1.3-0.1c-1.7-0.2-3.3-0.5-4.9-1c-3.1-0.9-6-2-8.5-3c-2.5-1-4.7-1.9-6.5-2.7c-3.6-1.5-5.8-2.4-5.8-2.4
		s0.4,0.4,1.2,1.2c0.8,0.7,2,1.8,3.6,3c0.8,0.6,1.7,1.3,2.7,1.9c1,0.7,2.1,1.4,3.4,2c2.5,1.3,5.4,2.7,8.8,3.7
		c1.7,0.5,3.5,0.9,5.5,1.2c0.5,0.1,1,0.1,1.5,0.1c0.5,0.1,1,0.1,1.5,0.1c0.5,0,1.1,0,1.6-0.1c0.3,0,0.5-0.1,0.8-0.1l0.4-0.1l0.2,0
		c0.1,0,0.1,0,0.1,0c0.2,0,0.5-0.1,0.6,0l0.2,0l0.2,0c0.3,0,0.7,0.1,1,0.2c0.7,0.2,1.5,0.6,2.2,1.1c1.5,1,3,2.3,4.6,3.7
		c1.9,1.8,3.9,3.7,5.9,5.6l4,7.7c0,0,3.5,23.9,10.3,36.7c-21,3.4-42.2-0.9-60.3-12.5c-6.7-4.3-12.8-9.5-17.9-15.3c0.2-1,0.3-2,0.4-3
		c0.2-1.9,0.2-3.7,0.3-5.5c0.1-1.8,0.2-3.7,0.2-5.5c0-1.8,0.2-3.7,0.3-5.5c0.1-1.8,0.1-3.7,0.3-5.5l0.3-5.5c0.1-1.8,0.3-3.7,0.4-5.5
		c0.2-1.8,0.3-3.7,0.5-5.5l0.6-5.5l0.8-5.4c0.2-1.8,0.6-3.6,0.9-5.4c0.3-1.8,0.6-3.6,1-5.4c0.3-1.8,0.7-3.6,1.1-5.4
		c0.4-1.8,0.8-3.6,1.2-5.4c0.4-1.8,0.8-3.6,1.3-5.3c0.5-1.8,1-3.5,1.5-5.2l0.2-0.5l-0.2-0.6c-0.6-2.1-1.2-4.3-1.6-6.5
		c-0.5-2.2-0.8-4.4-1.1-6.6c-0.3-2.2-0.3-4.4-0.2-6.5c0.1-2.2,0.6-3.9,1.5-6.1c1.7-4.2,3.5-8.3,5.5-12.4c2-4.1,4-8.1,6.2-12
		c1.1-1.9,2.3-3.9,3.5-5.6c0.3-0.4,0.7-0.9,1-1.2c0.2,0.1,0.3,0.2,0.5,0.2c0.2,0.6,0.4,1.2,0.6,1.8c0.3,1,0.6,2.1,0.9,3.2
		c0.6,2.2,1,4.4,1.5,6.6c0.9,4.4,1.8,8.9,2.5,13.4c0.4,2.2,0.8,4.5,1.4,6.7c0.6,2.2,1.4,4.4,2.6,6.6c0.6-2.4,0.7-4.7,0.7-7
		c0-1.4-0.1-2.7-0.3-4.1c0.1-0.1,0.2-0.3,0.4-0.4c0.5-0.6,1.3-1.4,2.2-2.4c0.5-0.5,1-1,1.5-1.4c0.5-0.5,1.1-0.9,1.7-1.2
		c0.3-0.2,0.5-0.3,0.7-0.3c0,0,0.1,0,0.1,0c0,0,0,0,0,0h0.1c0.2,0.1,0.5,0.2,0.9,0.4c0.4,0.2,0.8,0.4,1.2,0.6
		c1.6,0.9,3.3,1.8,4.8,2.7c1.6,0.9,2.9,1.8,4.2,2.4c1.3,0.6,2.5,1,3.3,1.3c0.8,0.3,1.4,0.3,1.4,0.3s-0.2-0.5-0.8-1.2
		c-0.5-0.7-1.3-1.7-2.4-2.6c-0.7-0.7-1.6-1.3-2.5-2c2.6-4.7,5.1-6.4,6.4-6c2.9,0.8,10.3,4.3,26.8,17.7c9.3,7.6,31.1,33.8,44.9,51.3
		c-5.5,0.3-11.6,2-15.5,5.5c-4,3.6-8.5,12.5-10.2,16c-1.7-0.7-3.2-1.3-4.5-1.9c-6.3-2.9-12.9-5.2-13.2-5.3l-3.4-1.2l0.6,3.6
		c0.4,2.5,1.7,9.6,4,16.7c2.5,7.7,6.1,15.4,11.1,16.8c2.4,0.7,4.7,1,6.8,1c5.8,0,9.8-2.1,10.7-2.7c0.6-0.3,1-0.9,1.1-1.6
		c0.2-1.3-0.5-2.2-2.2-4.5c-1.7-2.2-4.3-5.5-4.8-8c-0.1-0.2-0.1-0.5-0.1-0.7c-0.4-2.1-0.4-4.1-0.4-5.6c0.6,0.2,1.2,0.4,1.8,0.6
		c0.1,1,0.2,2.5,0.5,4.4c0.1,0.4,0.1,0.8,0.2,1.2c0.2,0.7,0.4,1.5,0.7,2.3c0.1,0.2,0.1,0.3,0.2,0.5c0.1,0.2,0.2,0.4,0.3,0.5l0.1,0.3
		l0.1,0.2l0.2,0.4c0.1,0.2,0.2,0.4,0.3,0.5l0.3,0.5c0.2,0.3,0.4,0.6,0.7,0.9c0.9,1.2,2.1,2.3,3.2,3.4c0.6,0.5,1.1,1.1,1.6,1.6
		C246.9,178.5,247.4,179,247.6,179.4z"/>
	<path class="st10" d="M233.9,155.1c1.7-3.5,5.8-11.5,9.2-14.6c3.8-3.5,10.7-4.8,15.9-4.6c4.8,6.1,8.3,10.7,9.3,12.2
		c-0.3,1.7-1.6,5.8-2.3,6.8c-3.4,1.7-11.4,5.2-14.6,5.2c0,0,0,0,0,0C248.7,160.2,240.8,157.7,233.9,155.1z"/>
	<path class="st8" d="M247.6,179.6C247.7,179.6,247.6,179.6,247.6,179.6L247.6,179.6z"/>
	<path class="st7" d="M261.8,178.1c-11.2,17.4-27.8,30-47.4,35.9c-9.3-11.8-11.3-23.9-11.6-30.4c0.2,0.1,0.5,0.3,0.7,0.4
		c4.1,2.4,8.5,4.3,13.2,5.3c4.6,1,9.3,1.2,13.8,0.6c2.2-0.3,4.4-0.7,6.4-1.2c2.1-0.6,4-1.2,5.9-1.8c1.9-0.7,3.7-1.4,5.6-2.4
		c0.9-0.5,1.8-1.1,2.7-2.3c0.4-0.6,0.8-1.4,0.9-2.4c0-0.9-0.3-1.7-0.6-2.3c-0.6-1.1-1.3-1.8-1.9-2.4c-0.6-0.6-1.2-1.2-1.8-1.7
		c-1.1-1-2.1-2-2.9-2.9c-0.2-0.2-0.4-0.5-0.6-0.7l-0.3-0.4l-0.1-0.2l-0.1-0.1l0,0l0,0c0,0,0,0,0,0l-0.2-0.4l-0.1-0.2l-0.1-0.2
		l-0.1-0.3l-0.1-0.3c-0.4-0.9-0.6-1.9-0.8-2.8c-0.2-0.9-0.3-1.7-0.4-2.5c4,1.2,7.6,2.1,9.6,2.1c0,0,0,0,0,0c5.3,0,16.7-5.7,16.8-5.8
		c2.8-1.4,4.6-10.1,4.6-11c0-0.9,0-1.3-7.5-11c-4.7-6.1-10.8-13.6-16.6-20.8c-7.6-9.3-20.3-24.3-29.1-33.2
		c2.7-4.3,10.2-16.7,12.1-23.9c0.2-0.8,0.3-1.5,0.3-2.1c20.5,11.7,36.1,31.6,41.5,56.4C278.4,135.6,274.2,158.7,261.8,178.1z"/>
	<path class="st8" d="M214.6,134.9c0,0,5.9,3.7,8.1,4.6c2.2,0.8-4,5.8-9.2,1C208.2,135.8,212,133.3,214.6,134.9z"/>
	<path class="st8" d="M203.9,99.3c0,0-7.5-14.5-20.5-15.5c-13-1.1-17.8,6.8-21,1.9c-3.2-4.8,15.6-11.9,26-6.9
		C201.1,85,203.5,93,205.9,98C208.3,103.1,205.3,101.6,203.9,99.3z"/>
	<path class="st8" d="M172.5,148.5c-0.3,1.2-2.5,1.7-4.9,1.2c-2.4-0.6-4.1-2-3.8-3.2c0.3-1.2,2.5-1.7,4.9-1.2
		C171,145.9,172.7,147.3,172.5,148.5z"/>
	<path class="st8" d="M218,149.3c0,0,16.7-3,22-9.6s-7.9,15.1-7.9,15.1"/>
	<path class="st8" d="M252.9,135.4c0,0,12.2,11.3,13.2,13c0.9,1.7,0,7.7,0,7.7l4.5-6.7l-3.9-8.5l-8.3-6.7"/>
	<path class="st11" d="M253.2,134.1c0,0-26.2-31.7-35-40.3c0,0-5.9-0.1-10.1-4c-4.2-4-2.7-10.2-2.7-10.2s-19.1-14.1-21.8-14.2
		c-2.7-0.1-5.2,4.9-5.2,4.9l-2.8-0.8l6.4-8.4l10.6,3.2l29,23.8l37.1,43.8"/>
	<path class="st11" d="M151.4,45.4c0,0-14.5,29.9-15.3,35.2s2.8,27.3,2.8,27.3s-11.4,65.7-5.4,92.3l-9.6-7.8l0.5-30.6l8.5-56.8
		L131.3,82l6.7-17.6l8.6-16.2"/>
	<path class="st12" d="M137.7,61.2c0,0-61.9-30.9-131.9-48.6c0,0,103,26.4,135.6,42.3L137.7,61.2z"/>
	<path class="st12" d="M146.9,47.6c0,0-78.4-37.2-104.9-45.5c0,0,91.9,31.4,108.6,42L146.9,47.6z"/>
	<path class="st12" d="M155,50.7c0,0,16.6,9.4,23.1,14.2l3.9-4.8l-27.8-14.8"/>
	<path d="M231.9,183.6c-2,0-4.3-0.3-6.8-1c-9.5-2.7-14.2-28.4-15.1-33.5l-0.6-3.6l3.5,1.2c0.3,0.1,7,2.4,13.2,5.3
		c6.5,3,21.4,8.2,25.3,8.2c0,0,0,0,0,0c3.2,0,11.2-3.5,14.6-5.2c0.7-1,2-5.1,2.3-6.8c-3.8-5.9-43.5-56-57-67
		c-16.5-13.5-23.8-16.9-26.8-17.7c-1.4-0.4-4.2,1.6-7,7.2l-3.9-2c5-9.8,9.7-10.1,12.1-9.4c4,1.1,12.1,5.3,28.3,18.6
		c8.2,6.7,25.2,26.8,34.5,38.2c5.9,7.1,11.9,14.7,16.6,20.8c7.5,9.7,7.5,10.1,7.5,11c0,0.8-1.7,9.5-4.6,11
		c-0.1,0.1-11.4,5.8-16.8,5.8c-2.9,0-9.3-1.9-15.3-4c0,1.7,0,4,0.5,6.3c0.5,2.5,3.1,5.8,4.8,8c1.8,2.3,2.5,3.2,2.2,4.5
		c-0.1,0.7-0.5,1.2-1.1,1.6C241.7,181.5,237.7,183.6,231.9,183.6z M215,152.1c2.3,11.2,6.8,25.1,11.3,26.4c5.4,1.5,9.7,0.5,12.1-0.4
		c-0.1-0.2-0.3-0.4-0.4-0.6c-2.1-2.7-4.9-6.3-5.6-9.7c-0.8-3.5-0.7-6.9-0.6-8.8c-3.1-1.2-5.8-2.3-7.5-3.1
		C221,154.4,217.5,153,215,152.1z"/>
	<path d="M183.9,75.3c0,0-0.5-0.1-1.4-0.3c-0.8-0.2-2-0.7-3.3-1.3c-1.3-0.6-2.7-1.5-4.2-2.4c-1.5-0.9-3.2-1.8-4.8-2.7
		c-0.4-0.2-0.8-0.4-1.2-0.6c-0.4-0.2-0.8-0.4-1-0.4c0,0-0.1,0,0,0c0.1,0,0.1,0,0.2,0l0.1,0h0l0,0l0,0l-0.1,0l-0.2,0c-0.1,0,0,0,0,0
		c0,0-0.1,0-0.1,0c-0.2,0.1-0.5,0.2-0.7,0.3c-0.6,0.3-1.1,0.8-1.7,1.2c-0.5,0.5-1,1-1.5,1.4c-0.9,1-1.7,1.8-2.2,2.4
		c-0.5,0.6-0.8,0.9-0.8,0.9l-3.4-2.7c0,0,0.3-0.4,0.8-1.1c0.5-0.7,1.3-1.6,2.4-2.7c0.5-0.5,1.1-1.1,1.8-1.7c0.7-0.6,1.5-1.2,2.5-1.7
		c0.5-0.3,1.1-0.5,1.8-0.7c0.2,0,0.3-0.1,0.6-0.1c0.2,0,0.5,0,0.7,0l0.5,0c0.2,0,0.3,0.1,0.5,0.1c0.2,0,0.2,0.1,0.3,0.1
		c0.7,0.3,1.1,0.5,1.6,0.8c0.4,0.3,0.9,0.5,1.3,0.8c1.7,1.1,3.2,2.2,4.7,3.3c1.4,1.1,2.8,2.1,3.8,3.1c1.1,1,1.9,1.9,2.4,2.6
		C183.6,74.8,183.9,75.3,183.9,75.3z"/>
	<path d="M124.3,191.5c-0.6-1.8-1-3.7-1.2-5.5c-0.3-1.8-0.5-3.7-0.5-5.5c0-1.9-0.1-3.7-0.1-5.6c-0.1-1.9,0-3.7,0.1-5.6
		c0-1.9,0.1-3.7,0.2-5.6l0.4-5.6c0.1-1.9,0.3-3.7,0.5-5.6c0.2-1.8,0.3-3.7,0.6-5.5l0.6-5.5l0.8-5.5c0.2-1.8,0.6-3.7,0.9-5.5
		c0.3-1.8,0.6-3.7,1-5.5c0.3-1.8,0.7-3.6,1.1-5.5c0.4-1.8,0.8-3.6,1.2-5.4c0.4-1.8,0.9-3.6,1.4-5.4c0.5-1.8,1-3.6,1.5-5.4l0,1.1
		c-0.7-2.3-1.3-4.5-1.8-6.8c-0.5-2.3-0.9-4.6-1.2-6.9c-0.3-2.3-0.4-4.7-0.3-7.2l0.1-0.9l0.1-0.9l0.1-0.9c0.1-0.3,0.1-0.6,0.2-0.9
		l0.2-1c0.1-0.3,0.2-0.6,0.3-0.9l0.6-1.7c1.6-4.4,3.4-8.6,5.3-12.8c1.9-4.2,3.9-8.4,6.2-12.5c1.1-2,2.3-4.1,3.8-6.1
		c0.8-1,1.5-2,2.7-3c0.3-0.3,0.7-0.5,1.3-0.8c0.2-0.1,0.3-0.1,0.5-0.2c0.2,0,0.4-0.1,0.6-0.1c0.4,0,1,0,1.5,0.2
		c0.2,0.1,0.5,0.2,0.7,0.4c-0.2-0.2,0.4,0.3,0.3,0.2l0,0l0,0l0.1,0.1c0.1,0.1,0.2,0.1,0.4,0.4c0.2,0.2,0.3,0.5,0.5,0.7l0.1,0.2
		l0.1,0.1l0.1,0.2c0.6,1.3,1,2.4,1.3,3.6c0.3,1.2,0.6,2.3,0.9,3.4c0.5,2.3,1,4.5,1.5,6.8c0.9,4.5,1.6,9.1,2.2,13.6
		c0.3,2.3,0.6,4.6,0.6,6.9c0,2.3-0.1,4.7-0.7,7c-1.2-2.2-1.9-4.4-2.6-6.6c-0.6-2.2-1.1-4.5-1.5-6.7c-0.8-4.5-1.6-9-2.5-13.4
		c-0.5-2.2-0.9-4.4-1.5-6.6c-0.3-1.1-0.6-2.2-0.9-3.2c-0.3-1-0.7-2.1-1.1-2.8l-0.1-0.1l0-0.1c0,0,0,0,0,0c0,0,0,0,0,0l0,0
		c0,0,0,0-0.1-0.1l-0.2-0.2l-0.1-0.1l0,0l0,0c-0.1-0.1,0.5,0.4,0.3,0.2c0.1,0.1,0.2,0.1,0.3,0.2c0.2,0.1,0.5,0.1,0.6,0.1
		c0.1,0,0.1,0,0.2,0c0,0,0.1,0,0.1,0c0,0-0.1,0-0.2,0.1c-0.5,0.4-1.2,1.3-1.9,2.1c-1.3,1.7-2.4,3.6-3.5,5.6c-2.2,3.9-4.3,8-6.2,12
		c-1.9,4.1-3.8,8.3-5.5,12.4c-0.9,2.2-1.4,3.9-1.5,6.1c-0.1,2.1-0.1,4.3,0.2,6.5c0.2,2.2,0.6,4.4,1.1,6.6c0.5,2.2,1,4.4,1.6,6.5
		l0.2,0.6l-0.2,0.5c-0.5,1.7-1.1,3.5-1.5,5.2c-0.5,1.8-0.9,3.5-1.3,5.3c-0.4,1.8-0.8,3.6-1.2,5.4c-0.4,1.8-0.8,3.6-1.1,5.4
		c-0.3,1.8-0.7,3.6-1,5.4c-0.3,1.8-0.6,3.6-0.9,5.4l-0.8,5.5l-0.6,5.5c-0.2,1.8-0.4,3.7-0.5,5.5c-0.2,1.8-0.4,3.7-0.4,5.5l-0.3,5.5
		c-0.1,1.8-0.1,3.7-0.3,5.5c-0.1,1.8-0.2,3.7-0.3,5.5c0,1.8-0.1,3.7-0.2,5.5c-0.1,1.8-0.1,3.7-0.3,5.5
		C125,187.7,124.7,189.6,124.3,191.5z"/>
	<g>
		<path class="st13" d="M153.1,97.6"/>
	</g>
	<path d="M233.2,156.7l-3.2-1.5c0.2-0.5,5.9-12.9,10.9-17.4c4.9-4.4,13.4-5.9,19.6-5.5l-0.3,3.6c-5.3-0.4-12.9,0.9-17,4.6
		C238.8,144.5,233.2,156.6,233.2,156.7z"/>
	<path class="st12" d="M260.8,151.9c0,0-0.1-4.7-5.6-5.5s-7,0.8-9.6-2.6l5.5,7.1"/>
	<path d="M245.6,143.7c0,0,3.1,4.7,6,4.5c2.8-0.2,7.8,0.1,9.2,3.7c0,0-5.9,0.1-8.9,1.1C249,153.9,245.6,143.7,245.6,143.7z"/>
	<path d="M130.8,80.5C86.7,44.8,2,13,1.2,12.7c-0.9-0.3-1.3-1.3-1.1-2.1c0.2-0.9,1.1-1.4,2-1.3c63.5,11.6,115.7,33.1,141.1,44.8
		l-1.5,3.2C119,46.8,75,28.6,20.6,16.6C48.3,28.1,101.1,51.9,133,77.8L130.8,80.5z"/>
	<path d="M163.8,68.4c0,0-2.5-1.4-7.1-3.8l1.6-3.2c4.7,2.4,7.1,3.8,7.2,3.8L163.8,68.4z"/>
	<path d="M182.7,63.7c-0.4-0.3-33.9-23.2-114.9-51.2c16.2,8.3,39.9,21,69.8,39l-1.8,3C76.5,18.9,41.7,3.9,41.3,3.8
		c-0.9-0.4-1.3-1.4-1-2.3c0.3-0.9,1.3-1.4,2.2-1.1c100.7,32,141.8,60.1,142.2,60.3L182.7,63.7z"/>
	<path d="M216.6,166.8c0,0,4.7-1,10.2,5.8c0,0-1.9-5.2-2.7-6.7c0,0,7.8,0,14.4,12.9l1.7-0.4l-5.3-9.8l0-11.2l-13.1-4.9l-7.9-3.1"/>
	<g>
		<path class="st8" d="M169.9,106c0.7-2,1.9-3.7,3.7-4.7c0.4-0.3,0.9-0.5,1.4-0.6l0.7-0.2c0.2-0.1,0.6-0.1,0.9-0.2l0.5-0.1l0.3,0
			l0.8-0.1c0.5,0,1,0,1.6,0.1c1,0.1,2,0.4,3,0.9c1,0.5,1.9,1.1,2.7,1.8c1.7,1.5,3.1,3.3,4.4,5.3c1.2,2,2.3,4.2,3.2,6.5
			c0.5,1.1,0.9,2.3,1.2,3.4c0.2,0.7,0.5,1.5,0.7,2.2c-0.4,0.2-0.8,0.5-1.1,0.7c-0.7,0.4-1.5,0.8-2.2,1.2c-1.5,0.8-3,1.4-4.5,2
			c-0.8,0.3-1.5,0.5-2.3,0.6c-0.8,0.2-1.5,0.3-2.2,0.3c-0.7,0-1.4,0-2.1-0.1c-0.7-0.1-1.3-0.3-2-0.5c-0.2-0.1-0.4-0.2-0.7-0.3
			c0.6,0,1.2-0.1,1.9-0.2c4.9-1.1,8-5.9,7-10.9c-0.2-0.9-0.5-1.7-0.9-2.4c0.2-0.6,0.3-1.3,0.1-2c-0.5-2.1-2.5-3.4-4.6-2.9
			c-0.4,0.1-0.8,0.3-1.1,0.5c-1.4-0.4-2.9-0.4-4.4-0.1c-3.1,0.7-5.5,2.9-6.6,5.7C169.1,109.6,169.3,107.7,169.9,106z"/>
		<path d="M158.5,122c0.3-0.4,0.5-0.8,0.8-1.2c0.3-0.4,0.6-0.8,1-1.1c0.7-0.7,1.7-1.2,2.8-1.5c1.1-0.3,2.2-0.2,3.3-0.1
			c1,0.2,2,0.5,2.9,0.9c0.9,0.4,1.8,0.8,2.6,1.3c0.8,0.5,1.6,0.9,2.4,1.4l2.3,1.4l0.6,0.4l0.5,0.3c0.4,0.3,0.6,0.3,0.9,0.5
			c0.6,0.2,1.3,0.5,2,0.5c0.7,0.1,1.4,0.1,2.1,0.1c0.7,0,1.5-0.1,2.2-0.3c0.7-0.2,1.5-0.4,2.3-0.6c1.5-0.5,3-1.2,4.5-2
			c0.7-0.4,1.5-0.8,2.2-1.2c0.7-0.4,1.5-0.9,2.1-1.3l-0.6,1.9c-0.3-1.1-0.6-2.3-1-3.5c-0.4-1.2-0.8-2.3-1.2-3.4
			c-0.9-2.3-1.9-4.4-3.2-6.5c-1.2-2-2.7-3.9-4.4-5.3c-0.8-0.7-1.8-1.3-2.7-1.8c-1-0.5-2-0.8-3-0.9c-0.5-0.1-1,0-1.6-0.1l-0.8,0.1
			l-0.3,0l-0.5,0.1c-0.3,0.1-0.7,0.1-0.9,0.2l-0.7,0.2c-0.5,0.2-1,0.4-1.4,0.6c-1.8,1-3.1,2.6-3.7,4.7c-0.7,2-0.8,4.4-0.7,6.7
			c0.1,1.2,0.2,2.3,0.5,3.5c0.2,1.1,0.5,2.4,0.8,3.4l-3.6,1.2c-0.4-1.4-0.7-2.6-1-3.9c-0.2-1.3-0.4-2.6-0.5-4
			c-0.2-2.7-0.1-5.5,0.8-8.2c0.5-1.4,1.1-2.7,2.1-3.9c0.9-1.2,2.1-2.2,3.4-2.9c0.6-0.4,1.3-0.6,2-0.9l1.1-0.3c0.4-0.1,0.6-0.1,1-0.2
			l0.5-0.1l0.1,0l0.1,0l0,0l0.1,0l0.3,0l1.1-0.1c0.7,0,1.5,0,2.2,0.1c0.7,0.1,1.5,0.2,2.2,0.4c0.7,0.2,1.4,0.5,2,0.8
			c1.3,0.6,2.5,1.4,3.6,2.3c2.1,1.8,3.8,4,5.2,6.3c1.4,2.3,2.5,4.6,3.5,7c0.5,1.2,0.9,2.4,1.3,3.7c0.4,1.2,0.8,2.5,1.1,3.8l0.3,1
			l-0.9,0.9c-0.7,0.7-1.4,1.3-2.2,1.9c-0.7,0.6-1.5,1.1-2.3,1.7c-1.6,1-3.3,1.9-5.1,2.6c-1.8,0.7-3.8,1.2-5.9,1.3
			c-1,0.1-2.1,0-3.2-0.2c-1.1-0.2-2.1-0.5-3.1-1c-0.5-0.3-1.1-0.6-1.4-0.8l-0.3-0.2l-0.4-0.2l-0.5-0.4l-2.2-1.5
			c-0.7-0.5-1.4-1-2.1-1.5c-0.4-0.2-0.7-0.5-1.1-0.7c-0.4-0.2-0.7-0.4-1-0.6c-0.7-0.4-1.4-0.8-2-1.1c-0.7-0.3-1.3-0.5-2-0.6
			c-0.7-0.1-1.5-0.1-2.3,0.1c-0.4,0.1-0.8,0.2-1.3,0.3C159.4,121.7,159,121.8,158.5,122z"/>
		<path d="M186.6,112.8c1.1,4.9-2,9.8-7,10.9c-4.9,1.1-9.8-2-10.9-7c-1.1-4.9,2-9.8,7-10.9C180.7,104.8,185.5,107.9,186.6,112.8z"/>
		<path class="st8" d="M185.8,108.5c0.5,2.1-0.9,4.1-2.9,4.6c-2.1,0.5-4.1-0.9-4.6-2.9c-0.5-2.1,0.9-4.1,2.9-4.6
			C183.3,105.1,185.4,106.4,185.8,108.5z"/>
		<path d="M203.4,113.1c0,0-0.5-0.9-1.4-2.4c-0.9-1.5-2.3-3.7-4.2-6.1c-0.9-1.2-2-2.4-3.1-3.7c-1.2-1.2-2.5-2.5-3.9-3.6
			c-1.4-1.1-3-2.2-4.6-3c-1.7-0.8-3.4-1.5-5.3-1.8c-0.9-0.2-1.8-0.3-2.8-0.4l-0.3,0l-0.4,0l-0.8,0l-0.4,0l-0.3,0l-0.6,0
			c-1.8,0.1-3.5,0.5-5,1.3c-1.5,0.7-2.8,1.7-3.9,3c-1,1.2-1.9,2.5-2.5,3.9c-1.3,2.7-1.9,5.1-2.2,6.9c-0.4,1.8-0.5,2.8-0.5,2.8
			s-0.2-1-0.3-2.9c0-0.9,0-2,0.1-3.3c0.1-1.3,0.4-2.7,0.8-4.3c0.5-1.6,1.2-3.2,2.3-4.8c1.1-1.6,2.6-3.1,4.5-4.2
			c1.9-1.1,4.1-1.8,6.3-2l0.9-0.1l0.4,0l0.4,0l0.8,0l0.4,0l0.2,0l0.1,0l0.2,0c1.1,0.1,2.2,0.2,3.3,0.4c2.2,0.5,4.3,1.3,6.2,2.3
			c1.9,1,3.6,2.3,5.1,3.7c1.5,1.4,2.8,2.9,3.9,4.3c1.1,1.5,2,2.9,2.8,4.3c1.5,2.8,2.5,5.2,3,7C203.2,112.1,203.4,113.1,203.4,113.1z
			"/>
	</g>
	<path d="M215.4,215.2l-2.9,2.5c-7.3-8.7-10.7-17.6-12.3-24.8c-0.6-2.7-0.9-5.1-1.1-7.2c1.3,0.9,2.5,1.7,3.7,2.6
		c0.2,0.1,0.4,0.3,0.6,0.4c0.4,2.4,1,5.2,1.9,8.1C207.1,202.5,210.2,208.9,215.4,215.2z"/>
	<path d="M213,215.3l-8.8,3.4c-4.7-7.7-8.1-21.2-9.8-30c-0.6-2.9-1-5.3-1.3-6.9c0.7,0.4,1.4,0.9,2,1.3c0.6,0.4,1.1,0.7,1.7,1.1
		c0.7,0.5,1.4,0.9,2.1,1.4c1.3,0.9,2.6,1.8,3.8,2.7l0.9,7.3l0.5,4.4L213,215.3z"/>
	<path d="M139.7,105c0,0,5.1-8.6,5-11.4c-0.1-2.7-7.1-22.7,4.7-41c0,0,4.4,19.3,4.8,24.2c0.4,4.9-3.6,11.4-3.6,11.4l-4.1-13.8
		c0,0,1.2,16.1,1.3,19.2C147.8,96.8,139.7,105,139.7,105z"/>
	<path d="M218.6,84.3l-3.7-2.4c0.1-0.2,10.4-16.2,12.5-24.2c0.3-1.2,0-1.5-0.1-1.6c-2.2-1.7-11.5,0.5-15.7,2.8
		c-4.9,2.7-14,9.7-14,9.8l-2.7-3.5c0.4-0.3,9.4-7.3,14.6-10.2c3.9-2.2,15.8-6.1,20.5-2.5c1,0.8,2.6,2.6,1.7,6.1
		C229.4,67.5,219,83.6,218.6,84.3z"/>
	<path d="M202.3,70.8c0,0,7.1-7.7,10.1-9.6c3.1-2,11.2-4.8,10.7-1.8c-0.5,3-11.9,8.1-11.9,8.1s9-2.1,8.4-0.4
		c-0.5,1.7-8.8,10.9-8.8,10.9"/>
	<path d="M186.2,133l5.5,5c1,0.9,2.4,1.5,4,1.7l13,1.5l-13.5-3.2c-0.8-0.2-1.5-0.5-2.1-0.8L186.2,133z"/>
	<path d="M207.1,113.3c0,0,10.5,2,10.5,2c3,0.6,5.2,2.6,7.2,4.8c2.2,2.5,4.6,4.9,6.8,7.4c2.3,2.6,4.7,5.1,7,7.7
		c-2.5-2.1-5-4.2-7.6-6.4c-2.2-1.8-4.4-3.7-6.5-5.5c-2.4-2-4.7-4.7-7.7-5.9C216.9,117.4,207.1,113.3,207.1,113.3z"/>
	<polygon class="st9" points="195.3,183.7 206.4,173.3 167.8,149.2 141.1,144.3 148.4,162.8 	"/>
	<path class="st8" d="M248.9,183.5c-1.3,3.5-3.9,6.3-6.9,8.4c-3,2.2-6.4,3.7-9.6,5.4c-1.9,1-3.8,2-5.9,2.6c-2,0.5-4.1,0.6-6.1,0.5
		c-2.1-0.1-4.2-0.2-6.1-0.9c-1.8-0.6-3.4-1.7-4.9-2.7c-3.6-2.5-7.2-5.2-10.3-8.3c-1.1-1.1-2.1-2.3-2.7-3.7c-0.6-1.4-0.6-2.8-0.3-4.3
		c0.2-2.2,0.6-4.5,1.9-6.3c0-0.1,0.1-0.1,0.1-0.2c1.1-1.4,2.7-2.3,4.3-3.1c3.8-2,7.7-4,11.8-5.3c2.5,7.7,6.1,15.4,11.1,16.8
		c2.4,0.7,4.7,1,6.8,1c3.1,0,6.3-0.6,9.2-1.9c2.8-1.2,1-6.1-0.5-8c-1.6-2-3.4-4.3-3.9-6.9c-0.3-1.3-0.5-2.7-0.6-4
		c-0.1-0.9-0.1-1.8,0.4-2.6c0.6,0,1.2,0.3,1.6,0.8s0.7,1,0.9,1.6c1.1,2.5,2.2,5,3.4,7.5c1,2.1,2.8,4.1,4.4,5.7
		c0.6,0.6,1.3,1.2,1.8,2C249.8,179.6,249.5,181.7,248.9,183.5z"/>
	<path class="st8" d="M197.3,185.1c0,0,3.8-3.6,2.9-5.2c-0.9-1.5-8.4-14.9-19.9-13.3c-11.5,1.6,1.6,6,1.6,6l8.1,8.1"/>
	<path class="st8" d="M174.3,162.4c0,0-10.4-0.1-11.4-5.5c-1-5.3,7.7,0.4,12.4,1.1C179.9,158.8,177.1,162.7,174.3,162.4z"/>
	<path class="st14" d="M168,177.6v3.9l-0.8,35.1l0,1.2l-19.8-8.5c-1.2-12.7-0.2-26,1-36.4c0.1-0.6,0.1-1.2,0.2-1.7
		c2.4,1.5,5,2.7,7.6,3.8c1.8,0.8,3.7,1.4,5.6,1.9c0.9,0.2,1.8,0.4,2.7,0.5C165.6,177.4,166.8,177.6,168,177.6z"/>
	<path class="st8" d="M207.4,217.5l-15.2,2.5l-25.1-3.4l-4-0.5c-2-12.8-2.1-25.7-1.6-36c0.1-1.1,0.1-2.2,0.2-3.3
		c0.9,0.2,1.8,0.4,2.7,0.5c1.2,0.2,2.5,0.3,3.6,0.3c0.2,0,0.3,0,0.5,0c1.3-0.1,2.7-0.3,4.1-0.6l2.2-0.5c0.4-0.1,0.7-0.2,1.2-0.3
		c0.5-0.1,0.9-0.2,1.4-0.2c1.8-0.1,3.6,0.2,5.2,0.6c3.2,0.9,6.1,2.4,8.7,4c1.3,0.8,2.6,1.6,3.9,2.4c0.6,0.4,1.1,0.7,1.7,1.1l2.6,8.1
		L207.4,217.5z"/>
	<path d="M252.2,181.2c0,1-0.2,1.9-0.7,2.8c-0.4,0.8-0.9,1.4-1.4,2c-0.5,0.6-0.9,1.2-1.4,1.8c-1,1.2-2,2.3-3.1,3.5
		c-2.1,2.2-4.5,4.3-7.1,6.1c-5.1,3.6-11.5,6.1-18.1,6c-0.8,0-1.7,0-2.5-0.1c-0.8-0.1-1.8-0.3-2.6-0.5c-1.7-0.5-3.3-1.2-4.7-2.1
		c-2-1.2-3.7-2.5-5.3-3.8c-0.5-0.4-1-0.8-1.6-1.2c-0.2-0.2-0.4-0.3-0.6-0.5c-1-0.8-1.9-1.5-2.9-2.3c-0.3-0.2-0.5-0.4-0.8-0.6
		c-1.1-0.8-2.2-1.7-3.4-2.5c-0.6-0.4-1.1-0.8-1.7-1.2c-0.7-0.4-1.3-0.9-2-1.3l-3.7-2.5c-2.4-1.6-4.9-3-7.4-3.8
		c-1.3-0.4-2.5-0.6-3.7-0.6c-1,0-2.7,0.3-4.1,0.6c-1.5,0.2-3.2,0.4-4.8,0.4c-0.2,0-0.4,0-0.5,0c-1.5-0.1-2.9-0.3-4.3-0.7
		c-0.7-0.2-1.5-0.4-2.2-0.6c-2.3-0.7-4.5-1.7-6.5-2.8c-2.4-1.3-4.6-2.7-6.7-4.3c-2.7-2.1-5.2-4.5-7.5-7.1c2.5,1.9,5,3.8,7.7,5.3
		c2.4,1.5,5,2.7,7.6,3.8c1.8,0.8,3.7,1.4,5.6,1.9c0.9,0.2,1.8,0.4,2.7,0.5c1.2,0.2,2.5,0.3,3.6,0.3c0.2,0,0.3,0,0.5,0
		c1.3-0.1,2.7-0.3,4.1-0.6l2.2-0.5c0.4-0.1,0.7-0.2,1.2-0.3c0.5-0.1,0.9-0.2,1.4-0.2c1.8-0.1,3.6,0.2,5.2,0.6c3.2,0.9,6.1,2.4,8.7,4
		c0.6,0.4,1.2,0.7,1.8,1.1c0.7,0.4,1.4,0.9,2,1.3c0.6,0.4,1.1,0.7,1.7,1.1c0.7,0.5,1.4,0.9,2.1,1.4c0,0,0.1,0.1,0.1,0.1
		c1.3,0.9,2.5,1.7,3.7,2.6c0.2,0.1,0.4,0.3,0.6,0.4c1,0.7,2,1.5,3,2.3c2.4,1.9,4.6,3.8,6.9,5.2c1.1,0.7,2.3,1.3,3.5,1.6
		c0.6,0.2,1.1,0.3,1.8,0.4c0.7,0.1,1.3,0.1,2,0.2c2.7,0.1,5.4-0.3,8.1-1c0.7-0.2,1.3-0.4,2-0.7c0.6-0.3,1.3-0.5,1.9-0.8
		c1.3-0.6,2.5-1.2,3.8-2c2.5-1.4,4.7-3.2,7-5.1c1.1-1,2.2-2,3.2-3c0.5-0.5,1-1.1,1.5-1.6c1.2-1.3,1.8-3.1,1.3-4.9
		c-0.3-1.2-1.5-2.2-2.3-3.3c-1.9-2.4-3.5-5-4.7-7.8c1.8,2.5,3.7,4.8,5.8,6.8c0.7,0.7,1.3,0.7,2.1,1.1c0.6,0.3,1,0.9,1.3,1.6
		C252,178.9,252.2,180.1,252.2,181.2z"/>
	<path d="M189.2,222.1c-41.6,0-79.2-28.9-88.4-71.2c-6.2-28.3,1.6-58.1,21-79.8l3.3,2.9c-18.4,20.6-25.9,49-20,75.9
		c10.2,46.4,56.2,75.9,102.6,65.8c22.5-4.9,41.7-18.3,54.1-37.7c12.4-19.4,16.5-42.4,11.6-64.9c-10.2-46.4-56.2-75.9-102.6-65.8
		c-3.7,0.8-7.4,1.9-10.9,3.2l-1.5-4.1c3.7-1.3,7.6-2.5,11.5-3.3c48.8-10.7,97.2,20.3,107.8,69.1c5.2,23.6,0.8,47.9-12.2,68.2
		c-13,20.4-33.2,34.4-56.9,39.6C202.1,221.4,195.6,222.1,189.2,222.1z"/>
	<path d="M209.8,145.6c0,0-3.2,38,16.1,43c2.4,0.5,5,0.2,7.3-0.4c3.8-0.9,10.5-4.6,10.1-9.3c-0.3-3.5-2.8-5.3-4.5-8
		c-1.9-3.1-2.6-6.7-2.3-10.3l-1.2-3.2L209.8,145.6z"/>
	<path class="st7" d="M218.7,161.2c0,0,2.4,0.2,2.8,0.3c2.3,0.4,4.5,1.2,6.6,2.3c2.7,1.5,5.1,3.5,7,5.9c2.2,2.8,5.7,8,3,11.4
		c-2,2.5-5.6,3.6-8.7,3.4c-1.5-0.1-2.9-0.4-4.3-0.9c0,0-8.8-2.8-11.2-17.8c0,0,4.6,0.2,9.8,5.7C222.7,167.4,221,163.9,218.7,161.2z"
		/>
</g>
</svg>
